<svg xmlns="http://www.w3.org/2000/svg" xmlns:xlink="http://www.w3.org/1999/xlink"
	viewBox="-23413 -7952 10199 17920" height="80" width="46">
	<defs id="defs1">
		<mask id="all">
			<g>
				<path fill="#fff" stroke="none" d="m-24500-27050h55700v47100h-55700z" />
				<use id="LAKES" fill="#000" xlink:href="#Lakes" />
				<g fill="none" stroke="#000" stroke-width="40">
					<path
						d="m17072 12065 28-30 64-131 127-130-1-96 54-71 63-32 25-62 28-33 19-59 73 5 56-12 285-249 16-46v-43" />
				</g>
				<g fill="none" stroke="#000" stroke-width="96">
					<path
						d="m-13214-2631-2585 6234 21 34 36 19-38 54 64 42 16 107-32 22-80-70h-21l41 308 182 90 15 202 121 119 40-106 47 14 81 170-39 63 29 203 110 82-44 74 43 144-68 23 46 196-56 91 4 12 116 5 74-85 126 216-122 52 37 114 47 4 41 98 43-16 127 23-23 112 111 256-23 31 17 31 7 157 63 18 88-92 49 40 2 151 42 87-12 41 41 37 1 17-16 17 9 50 43 28-47 138 145 187-45 81 149 114 77 229-69 6 112 241 56-13 1 94-28 6 34 64-5 65 53-31 95 16 29 161 57 134-29 112 8 75-25 74 18 72-22 104-18-8-29 74 11 83-8 47-20 14 2 44-40 24-12 68-62-3 4 73 91 32-49 93-15 79 52 71 17 161 111 67 40 55-16 67 44 62-21 43 2 5" />
					<path d="m-8064-955-1627 6771-240 997-947 3941" />
					<path
						d="m-3793-208-459 4145h2l-41 378 24 3-41 378 24 3-41 378 24 3-41 379 23 3-41 379 24 2-41 380 25 3-40 380 23 3-41 381 23 2-40 381 19 2-40 382 22 2-40 382 19 2-40 382 22 2-36 344 5 1-40 387 21 2-40 388 21 2-40 390 23 2-40 389 21 3-21 201-19 189 21 2-39 390 18 2-40 393 22 2-19 197" />
					<path d="m3578 3252L872 6807l-974 991-9 3817-1 429" />
					<path
						d="m10559 8018 1045 4210-23 144 163 171 37 170 96 87 55 80 97 82 29 1 93 128 76 53 54 93 117 80 119 42 14 47 37 16 235-29 65 25 40-37 87-23 80 14 37-17 122 15 121-3 4-22 91 19 272 95 18 71 87 72 183 41 49-38-39-84 26-21 65-4 52 30 5 78 32 53 48-7 23 35-16 33 117 117 114-12 100 38 93-48-10-45 95-39 108 19 128 82 39-15 89-132 218-162 59-70 92-21 69-44 37-71 166-29 52-34 91 18 61-10-1 3 77 1 26 304 156 84-71 93-17 81-3-1-20 28-23 18-22 9-37 38-8 18" />
					<path
						d="m15755-4173-90 42-53 69 7 32 92 19 70-15 32 46-72 45 43 57-106 27 89 74 125-23-4 72-40 5-2 80 86 95-36 77 23 108 109 6 79 43 31-41 42-111 66-2-50 132 92 189 81 118 75-26 81 53-78 78-158-30-69 38 55 161 70-73 109 19 31-44 138-34 36 96 65 10 15-86 93-139 137-14 83 55-94 107-157 98 7 112 84 58 29-82 42 2 56 46-5 78-59 16 18 81-73 36 29 152-66 93 54 114 116-21 216 218 5-51 69-26 53 78 125-10-20-65 28-31 42 72-46 133 76 118 68 64-63 73 30 86 75-28 47 179-46 9 122 203-65 48 38 80-30 110 198 105 66 73-29 65-116 33 144 136 61-58 75 39-78 108 73 71 57-98 51 53 54-42 49 18 112-63-5 48-153 186 157 92 31 126 47-18 60 147-33 49 87 27 195-92 25 30-123 99 30 34-58 67 52 15 116-66-44 149 122 245-163 20 85 124-37 60 188 83-179 131-142-70-193 13-10 88-130 48-33-89-160-35-102 12-26 176-144 42 75 52 23 55-127 23-4 51-157-87-43-74-122 55-73-27-50 32-353-197-9 39-121-69-7 58 109 44 8 116 127 89-39 36 154 146 12 109-199-23-285-120 7-37-73-13-66 68 218 159 185 98-68 154 47 104-179-36 39 96-115 118 170 233-67 83 48 121 272 102-43 60 20 32 54-19 230 151 149-49 135 84-37 98 52 34 82 232-206-33-57 82 172 223 107 6 28-66 88 99 118 38 84-145-51-189 69-172 186 147-79 37 206 222-123-22 187 286-72 46 74 101 109 64 45-44-88-149 191 87 24 79 96-4 38-84 120-36 62 69 36-136a43104 43104 0 0 0 6 0l8 1 23 48 126 48 60 143 37-71 121 70 151-37-3-52 100-37 37-13 175 128 37-131 47-31 5-79-101-82-66-132 59-40 4 4-66-89 11-106-89-98 2-161-129-141-43-165 208-170 14-141 71 105 173 33-230 176-77 94-8 122 93 84 166-14 209 202-112 42 62 67a43223 43223 0 0 0 3895-2352l121 177 133 196h-1l108 160" />
					<path
						d="m19218 9964 154-127 124-149 72-186-165-371 179-80-38-86 357-162-3 17 35 57 40-8 26-3 106 8 22 16 3-58 39-21 57-8 34-56 46-49 84 19-30-57 9-47 38-47 51-12 4-11" />
					<path d="m23343 9612 4 17-73 35-4 8 4 16-6 60-13 54 4 46" />
					<path
						d="m-15092-14714-775 1016v11l-33 36-1 14 52 67-130 203-42 119-122 63-92 171a26929 26929 0 0 0 801 583l-103-46-29 68 42 50-44 160-111-13 53 227-63 6-1 2-184 156 67 69-47 135-118 34 29 71-66 50 50 74 209-8 26 76-80 52 28 50 124-58 70 13-20 65 78 22-22 41-145 22 37 154-33 174-179 118 2-2-93 15-70 63-112-10-30 86 94 9-62 100 67 43-17 50-108 10-42 87-87 16-3 71 76 24 32 134 41 42-30 182 66 60-152 89 124 71 93-20 74 95-27 292-69 14-6 115 49 27-57 35 70 126 23 134 104 9-55 105-120-7 3 70 74-3 11 300-61-21-55 105-80-37-65 33 64 125-23 125 74 91-168 128-38 333 75 189-108 38 23 48-95 71 15 80-70 45 172 178 129 2 29 274-17 102 64 15 6 65-67 43 115 381 110 45 45 84-88 299-84 14-33 110 72 23-103 281 98 42 67-2 63 67 54 37 45-77 56 30 32 76 117-61 17 131 35 28 47-10 34 78 80 37 55-26 178 56 65-96 120 71-62 192-93 36 1 285 84 60-56 82-22 329 1 10 53 113" />
					<path
						d="m-3208-21147-2324 9668a23675 23675 0 0 1-900-235l-26 92-3 27 38-1 5 26-46 12-42-9-21-20-9 31-84-24 50-173a23675 23675 0 0 1-1498-488l-51 110 86 328-69-30-1389-451-663 1553 2397 3710a28552 28552 0 0 0 795 212l421 843 1906 706 1349 501-503 4551" />
					<path clip-path="url(#nu_nl-clip)" d="m15741-4139 5-203" />
					<path
						d="m-22032-7952a34499 34499 0 0 0 5051 3483 34499 34499 0 0 0 1885 991 34499 34499 0 0 0 1882 847A34499 34499 0 0 0-8064-955a34500 34500 0 0 0 4271 747 34500 34500 0 0 0 4 0A34500 34500 0 0 0 94 1" />
				</g>
			</g>
		</mask>
	</defs>
	<g id="Lakes_and_Rivers" display="none">
		<g id="Islands">
			<g id="i-CA">
				<g id="i-CA-BC">
					<path id="anger" d="m-21681 917 22 17-9 21-48 37-14-6-20-65z" />
					<path id="anvil" d="m-19782 6946 7 2 10 17-7 28-17 6-7-21 3-13 9-4z" />
					<path id="aristazabal"
						d="m-21734 1827 21-8 20 42 7 45 18 48 6 72 12 27 12 92-32 36-21 43-28 37-33 18-10-16 27-78-32 9-16-58 4-42 19-12-19-15-11-43 14-56 11-15-13-25 3-19 10-3-5-37 14-15 17 2z" />
					<path id="athlone" d="m-21554 2662 35 22-44 33 2 23-15 8-20-2-5-9-44-20z" />
					<path id="baker1" d="m-21198 4722 2 7-15 10-9-11-32 2-22-26 27-5 24 16z" />
					<path id="banks1"
						d="m-22014 704 45-72 48 18 84 140 47 101 27 94 12 86v125l-12 94-45 38-20-18 1-21-24-10-13 10-43-19 4-65-25-74 18-58-38-102-25-20-17-114 10-24 29-12 19 1-2-17-22 5-27-5-18-28 8-20z" />
					<path id="barnard" d="m-21817 1450 29 45v31l6 20-16-12-27-69z" />
					<path id="baron" d="m-21598-262 1 19-36 19-34-1 10-16z" />
					<path id="bligh"
						d="m-21787 5782 19-8 13 37-34 13-13 18-22 9-5-8 27-15 12-15-19 13-17-19 22-16 5 4 10-3z" />
					<path id="bonwick" d="m-21282 4732 2 10-14 13-12 2-3 7-18-1-9-18 4-11 8-6z" />
					<path id="bowen"
						d="m-19872 7078 31 8 1 11-48 49-23 10-32-14-13-12 16-9-1-19 43-19z" />
					<path id="bramham" d="m-21669 4057 32 20-24 25-40-9-7-39z" />
					<path id="brougton"
						d="m-21248 4602 31 5 17 41-7 23 17 18-13 12-31-26-7-21-15 8-36-15-41 4-29-17-19-21-35-88 16-1 41 23 16 8 40 9 2 9 26 12 2-14 11-2z" />
					<path id="burnaby"
						d="m-23143 1461 69 2 26 19-18 21-58 16 28 29-27 21-23-17-20 16-6-6z" />
					<path id="calvert"
						d="m-21681 3335 77 54 9 51-10 46-27 28-26 94-35 18-14-17-15-78-19 12-27-46 32-98-4-31 30-63 27 10 11-14 17 1z" />
					<path id="campania"
						d="m-21659 1394 31 11-4 37 6 46-7 38 20 73-32 76-24 1-22-58-11-158 17 1v-24l-17 4 4-25 17-19z" />
					<path id="campbell"
						d="m-21396 2825-22-6-51 91-9-4-5 10-35 7 2 11-18 29-31-45 24-20 16-27-20-43 43-20 21-24 54 6 3-20z" />
					<path id="chaatl" d="m-23339 402 53 31-11 24-11-4-73-51-16-39 23-21z" />
					<path id="chatfield"
						d="m-21336 2724 45 1 16 15v20h-35l-16 18-26 11-27-11-26-34 47-10 28 18z" />
					<path id="cortes"
						d="m-20531 5738 14-1 14 133-19 6-14 76-34-24-1 16-29-1-30 22-2-17 15-24 23-19-25-29-12-41 105-40-9-39z" />
					<path id="coste" d="m-20833 1013 10 2-9 27-38 15v-21z" />
					<path id="cox" d="m-22450 3961 6-4 12 23-7 9-17-8-12 9-7-7 2-28z" />
					<path id="cunningham"
						d="m-21261 2752 14 4 6 23-6 6 1 38-26 58 5 10-25 16-15-9-22-26-12-9-13-3-21-30-2-21 34-12 27 8 8-12 20-17 15-9z" />
					<path id="denman"
						d="m-20768 6462 35-49 18 63-3 78 16 23-2 17-19-22-8 3-12-19-2-24-20-47z" />
					<path id="denny"
						d="m-21270 2898h8l-36 55-20-4-39 36-26-30-30-8-30-32 13-66 22-4 3 17 63 11 46 46z" />
					<path id="dewdney"
						d="m-21829 1519 22-7 11 28 9 13 1 52h-23v-28l-9-9-10 20-22-11 15-42-10 8-4-27 18-10z" />
					<path id="digby" d="m-21537 25 36-9 12 39-3 25-11 27-19 10-12-12z" />
					<path id="dolphin" d="m-21829 510 22 5 9 12-3 15-20 15-23-3-7-27z" />
					<path id="dowager"
						d="m-21375 2469 40 21-1 19-30 15-3 19-30-9-52 29-51-28 9-41 29 10 37-37z" />
					<path id="dufferin" d="m-21464 2716 3 9-9 12-33 7-62 19 17-56 29-23z" />
					<path id="dundas"
						d="m-21672-357 71-63 23 6 25 13-5 32 46-4-1 31-24 29-29 13-22-1-58 18-2-16-29 18-22 2 5-32z" />
					<path id="dunira" d="m-21603-231 6 6-7 22 2 32-6 6-23-7 6-10-12-10 4-21 9-13z" />
					<path id="e_cracroft"
						d="m-21160 4950 18-4 9 38 10 15 17 11-5 12-19 12-41-7 17-21 19-1-17-10-8-14z" />
					<path id="e_redonda"
						d="m-20362 5761 42-8 17 25 11 30-6 49-27 33-56 15 4-49 30-38 27-9 9-23-13-23-14 42-19 5-25 34-25-42z" />
					<path id="e_thurlow"
						d="m-20741 5394h96l24 35-23 29-26 12-14-16-2 23-14 10-57-6-42-60 7-7 42 6z" />
					<path id="eden" d="m-21297 4664 23 28-2 8-26-1-24-11-10-19z" />
					<path id="farrant"
						d="m-21479 1349-50-18 34-14-16-67 50-24 15 67zm5 29-64 29 21-51z" />
					<path id="flores"
						d="m-21722 6189h51l15 40-18 49-13 16 3 48-32 2-3 8-31-28 7-4-6-18-31-1-16-34 17-10-5-23 41-73 21 9z" />
					<path id="gabriola"
						d="m-20310 7135 35 10-6 10 19 34 40 34 3 22-10 11-41-18-55-59v-15z" />
					<path id="galiano"
						d="m-20214 7408 9 4 9 47 7 26 46 62 3 12 34 34 10 35-10 19-39-18-5-30-4-30-52-76-13-39-3-34z" />
					<path id="gambier"
						d="m-19869 6946 42 4 8 10 6 45-14 52h-47l36-35-48-12-24 25-9-5 10-41 16-10 3-19z" />
					<path id="gil"
						d="m-21443 1350 15-2 19 30 11 44-32 84-14-3-29 45-1 45-19 12-18-20-60-7-9-57 20-56 22-29 83-30z" />
					<path id="gilford"
						d="m-21015 4736 25 28-20 36 2 21 11 16 14 9-3 16-64-2-8 15-20 2-4 19-21 17-44-7-43-47-58-3-9-20-29-9-25-41 27-28 51-20 36 12 67-31 61 5 19-6z" />
					<path id="goose" d="m-21688 2887 12 3v16l-38 42-31 2 2-27 25-7z" />
					<path id="goschen" d="m-21915 430 64-11 19 51-43 13-26-17z" />
					<path id="graham"
						d="m-23092-635 33-92 68-18-31-18 12-14 32 21 75 130 101 25 21 65-37 68-98 22v33l69-6 28-38 109-5 82 35-2 63-23 25 27 47-15 51-25 27 2 34-6 29-35 28h-58l-31 22-33 2-89-34-33 14-92-22-12-18-35-14-1 8 30 16 3 18-29 23 38-10 22 44 42-3 52 28-92 14-38 28-3 12 49-24 57 18 9 20 31-7-20-20 14-36 77 51 31-11 16-78 32-22 72-9 39-35 7-27v-28l21-32 14-53-7-44 8-2 27 44 64 42 48 17 1-1 62 6 85 5 83-41-154 168-220 129-27 60-90 60-22 48-46 29-33 102-52 61-109 85-47-54-100-19-24 28 34 6 36 25-10 21-65-4-11-5-9-10-25-27-25-7-7-9-12 5-19-4-48-31-22-84 2-19 33-9-20-41-48-39 22-25 47 23 9-24 43 18 16-8-133-60 67-38 95 78 3 58 37 25 7-21-31-82 14-14-101-143 36-1 8-15-70-11-38-21 22-26 19 13 22-16-58-34 29-23-25-34 17-36 31 8 4 28 46 33 7-8-35-36-15-127 45 40 19-10-28-36 15-26-45-68 17-26 36-6-6-59 24-52 41-16 28-47z" />
					<path id="greaves"
						d="m-21473 3895 31 28-59-18-22-1-20-13-18-3-20-10 27-10-2-7-19 3-9-12v-9l18-2 28 15v11l12-11 28 28z" />
					<path id="gribbell"
						d="m-21182 1241h15l-6 27-19 41 5 63-5 31-46 62-24 3-27-49-65-4-4-38 85-61 20 2 23-27 7-28z" />
					<path id="gurd" d="m-21876 340 29-8 13 29-4 13-28 5z" />
					<path id="hanson" d="m-21444 4817 29 26 2 17-11 6-42-33 11-21z" />
					<path id="harbledown"
						d="m-21380 4852 45 13 37 41v13l-19 2-70-31-19-33 7-2 13 21z" />
					<path id="hardwicke" d="m-20969 5225 67 18 14 70-44-1-25-12-21-25-37-13-18-40z" />
					<path id="hawkesbury"
						d="m-20983 1118 16 20-18 16-47 15-10 55-44 35-28-45-56 4-75 33-7 44-62 14-9 15-16 8 20-54 109-180 83-14 5 9 75-2 10 24z" />
					<path id="hecate" d="m-21613 3293h37l-20 87-75-46 45-42v10l7 1z" />
					<path id="hernando" d="m-20583 6006 6 15-21 17h-10l-8-33 11-18 7 16z" />
					<path id="hibben" d="m-23353 552 31 16 54 55 6 25-86-38 1-9h11l-1-20-10-4z" />
					<path id="hope"
						d="m-21982 4087 33-6 31 32-14 15 3 15-37-1-6-21-22-3-28-27-2-15z" />
					<path id="hornby"
						d="m-20691 6524 20-7 14 5 35 47 5 17-15-8-12-19-11 5 3 13-5 7-26 1-16-36z" />
					<path id="horsfall"
						d="m-21454 2738 19 22-5 6-50 3-19 21-32 20-7-3 9-32 37-30 32-7-2 10 10 1 2-11z" />
					<path id="hunter"
						d="m-21518 2960 49-25 20 3-4 20 67 7 16 30-23 30-3 23-69 78-25 8-55 71-16-12-27 22-26-13 19-19-20-5 5-15 45-47-34-11-4 7-41-21 13-35 33 5 25-60 43-21z" />
					<path id="kaien" d="m-21471 71 54-8 2 34-3 13-14 9-12 22-48 2v31l-16 6 15-86z" />
					<path id="kennedy" d="m-21542 340 30-9 10 27-13 52-27 25-19-11v-43z" />
					<path id="king"
						d="m-20793 2873 26-17 14 34-30 28 3 24 12 11 1 12-18 6-7 18-17-3-33 19-10-9-32 17-19-13-24 8-22-16-44 18-23-9-20 6-12 13-28-16-14 5-7 24-48-7-87 76-16 36-32 28-26-16-102-12 3-10 27-19-5-16 16-34 57-76 39 19-11-38 33-37 70-30 17-19 42 15 36 1 14 18 73-15 67 6 29-44 38 7 15-12 15 18z" />
					<path id="kunghit"
						d="m-23156 1800 36 29-4 56 38 35-11 14-43-2-5-18-10-1-7 14-7-10 2-30-14 7-5 32 21 33 8 24-14 1-5-23-14-21-8 4 4 56-10 3-9-8-10 8 6 27-12-2-13-86h26l14-24-14-6 9-39 18-7-5-23z" />
					<path id="kuper" d="m-20285 7413 10 1 11 12-1 13-10 27-7 7-9-21z" />
					<path id="lady_douglas" d="m-21478 2555 19 9-28 30-25-2-6-10 6-33z" />
					<path id="langara"
						d="m-22944-833 30 35-5 29-17-1-4 18-12 14-19-19 22-15-37-40 19-19z" />
					<path id="lasqueti"
						d="m-20495 6662 26-13 47 53 20 6 9 32 20 25-12 34-39-50-48-17z" />
					<path id="loretta" d="m-20965 1075 15 6-13 41-15-13-27-3z" />
					<path id="lotbiniere" d="m-21784 1515 29-12 10 41-17 14-7-6-11 5 3-16z" />
					<path id="louise"
						d="m-23099 707 44-2 43 33 8 33 45 47 16 54-36 5 4 24-79 30-40-48-31 2 3-105 11-28-2-22z" />
					<path id="lulu"
						d="m-19703 7424 16 10-22 7-12 1-7 4-62-2-35 14-37-2-14-6-14-22-15-11 23-51 29 15 13-2 13-13 13 1 15 12 20 2 17 9 18 20 11 22z" />
					<path id="lyell"
						d="m-23050 1118 33 2 7 53-62 64-36-13-7-45-11-17-19 5 9 21 3 44-30 3-14-14 2-71 17-18-12-69 37-9 61 48-9 10-56-36-12 8 54 29 11 24z" />
					<path id="maitland"
						d="m-20947 1064-20 1-24 6-1 18-36 10-19-22-68 11-6-21 12-7 60-3 10 4 40-2 28-7z" />
					<path id="malcolm"
						d="m-21511 4692 29-4 22 68-9 5-9-11 2-10-27 1-27-14-13-18-39-11v-32l-39-2-43-25 1-13 53-13 12 18 17 3 12 26 20-1 21 12z" />
					<path id="maude" d="m-23038 472 8 7-10 19-28-3-30-14 2-16z" />
					<path id="maurelle" d="m-20625 5615 67-8 5 47-9 23-28 17-32 1z" />
					<path id="mayne" d="m-20099 7646 15-6 14 37-2 44-59-52 2-27 25 20 6-6z" />
					<path id="mccauley"
						d="m-21844 610 87-8v-33l18-14 32 28-5 36-27 31 8 27 24 12 11 27-4 20-14 2-24 48-8 66-39-29-77-121-4-67z" />
					<path id="meares"
						d="m-21584 6430 52 40-11 43-19-15-35 77-34-33 17-57 25-14-25-20-4 22-18 17-15-7 15-56 23 10 7-15z" />
					<path id="melville1" d="m-21638-163 30 8-8 40-20 8-27-8-5-34z" />
					<path id="moresby"
						d="m-23218 446 35 38 63 16 20 28 144-23 37 32 34-8-17 69-22 27 31 40-12 41 24 21-31 62 12 11-16 11-65-74-13-28-49-28-41-5-31-35-15 5 33 33-17 23 1 28 2 22-11 28-6 8h-17l-10-12-3 12 22 16-3 14-79-9 27 19 32-4 11 7 7 49-39 8v6l20 11-1 19-8 6 6 22 24 8 19 22 25 10 24 1 2 9-8 8-13-7-19 1-27-24-29 3-51 35-1 20 11-12 23 50-10 31-4 50-5 3-26-41-5 6 26 49-7 24 8 18 8-2 10 18-41 13 21 26-8 14 30-8 17 24-14 3 6 9 20 8 11 31-10-1-7 19 17 26 4 13-37 41-23 8v10l31-12 7 14-12 30-26 3 3 8 13 2 24-10-8 28-21 57 17 4-3 17 7 38-2 20 22-11-7-9-1-31 73 1 15 25-17 34 27 3-21 43-35-17h-34l-2 5 33 6 4 14-6 10 23-2 1 15 39 2 7 30-29 25-26 7-43-30 16-25-6-21-38 63-14 7-22-4-6-21 8-27 10-6 4-47-4-47-17 94-12 5-5 22-23-2 4-35-12-3-1-12 12 2 2-58 16-40 6-37-37 79-9 8-14-52 12-51-11-25-2-38 13-13-1-7-10 2-14-22 29-10-26-10 8-45 25-15 26 11 8 28 8-8 1-16-10-6-8-13 14-15-51 2 9-74-43-73-17-99-9-7v-29l16-8-2-13-14-6 16-40-21 2-21-74v-59l88-6 2 43 17 8 7-48-31-24 8-67h-14v39l-15 23-23-10-19 23-16 13-14-12-2-66-18-24 8-45 22-11-24-61 10-6-11-41 18-14 111 46h18l22-12-40-21-14-40-52-37-2-16-26-12-1-19-42-8-14-36 21-15-15-9-5-30 16-5 59 43 40 17 13-24 23 10 7-9z" />
					<path id="n_broughton"
						d="m-21346 4494 36 11 24 22 6 30-15 6-5-10-31-3-12 3-16-6-41-23-9-16z" />
					<path id="n_pender" d="m-20111 7698 10 36-1 27-10-9-20 18-19-32 15-57z" />
					<path id="nalu" d="m-21558 3233 12-7-2 14-24 27-21 2-7-6 2-18 16-14 18-1z" />
					<path id="nelson"
						d="m-20119 6503 12 17-6 6-14-4-42 9-2 18-22 18-4-6-32 50-8 5-12-25-25-14-4-16-19-7 18-24 5-16 23 2 39-30 16 6-2 11 12 11 6-3v-18l9-5z" />
					<path id="nigei" d="m-21938 4156 80 12 14 41-3 59-13 6-43-56-16-10-31-46z" />
					<path id="nootka"
						d="m-21817 5547 38 12-22 61-16 77-14-3-8 71-12-2-27 70-45-8-28-49-50-42 10-48-23-33-15-99 84 27 29-6 8-21-40 7-51-58 34-27 13 14 121-3z" />
					<path id="pearse"
						d="m-20996-546 32-7-13 64-11 17-121 65-29 14-103 12-1-82 24-2 62-20 21 2 88-30z" />
					<path id="penrose"
						d="m-21537 3604 19 5-16 18-6 1 1-8-6 8 8 6-3 4-17 3-7-12 2-19-11-7 33-8z" />
					<path id="pitt"
						d="m-21617 486 30 47 40 185 26 92 2 137 55 269-41 16-31 27-15 45-54 28-6 44-65-30 1-119-19-89-15-32 1-30 35-39-38-33 66-60-22-29 34-19-73-22-12-51 11-39 9-37h8l5-27-17-34-26-25 5-17 12-5 28-67-31-35 27-39z" />
					<path id="pooley"
						d="m-21131 2208 73-27-13 26-32 43-37 37-31 23 5-24-4-2-14 37-63 56-33 2 26-46 32-32-1-41-3-34 30-48 15 13 42 14-3 11 13 10 6-9z" />
					<path id="porcher"
						d="m-21657 246 31-10 26 61 5 117-14 26-17 12-8-6-28 22-43 3-31 45-39-14-7-23-40-31 14 1-3-31 16-7-9-28-16-4-4-77-15 13-25-14-35 34 28 60-10 11-21 1-27-31 3-28 23-21-5-18 24-27 25-3 39-29 12 16 44-29 21 14 20-19 8 19 8-20 25 14 15-6z" />
					<path id="prescott1" d="m-21762 168 27-24 16 35-1 33-13 3z" />
					<path id="price"
						d="m-21577 2339 16 5 17 44-64 119-62 39-18-58 40-120 30-42 32 20z" />
					<path id="princess_royal"
						d="m-21280 1492 41 2-1 53 47 151 28 24 1 79-13 34-13 67-51 101-27 20-44 69-47 54-16 7-13 37-60 69-18-20-78-30 32-50 7 2 29-54 12-41 27-26 7 5 24-38 37-31 50-18 34-54-10-19-32 60-38 9-56 51-9-6-56 69-5 41-17 34-85-26-36-87-13-56 3-72 18-60 24-24 7 3 28 50 10-6-16-15-10-28 46 1 46-5 1-12 21-13 8-18 50-21 20 3-9-13-14 3-12 9-18 4-21 11-15 20-45 18-54 1-16-11 10-28-19 2v-50l39-62 35-20-1-19 69 10 46-92 40-12 17-84 46 1z" />
					<path id="promise" d="m-21388 1279 27 4-11 34-17 18-12-21 6-31z" />
					<path id="quadra"
						d="m-20744 5574 99 10 8 34-36 11 25 10 19 59-5 40-55 36-35 6 5 42h11l-23 66 1 26-16 8-19-4-2-10 11-23-7-54 20 6 4-15-26-30-11-52-19-19 36-35-4-36 11-44 31 18z" />
					<path id="ramsay" d="m-23065 1312 23-6v31l-9 8-30-5 1-9-16-18 2-12z" />
					<path id="raza" d="m-20481 5649 10 6 7 20-13 16-26 12-14-21 1-19 24-2z" />
					<path id="read"
						d="m-20623 5729 73-53 5 21-13 59-21 20-21-34-3 32-57 31-9-23 40-28z" />
					<path id="rennison" d="m-21774 1791 33-30 11 37-30 31z" />
					<path id="roderick"
						d="m-21280 2164 60-27 12 30-4 18-14 13-3 18 5 45-5 32-30 34-35 69-9 29-13 14-75-75 44-80 31-41 37 26 5 11 13-14-26-16-17-21 27-34-12-9z" />
					<path id="s_pender" d="m-20116 7766 3-7 37 36 6 13-14 6-13-4-9-20 3-7-8-6z" />
					<path id="saltspring"
						d="m-20273 7520 20-46 29 51 40 105-7 2-34-35h-10l46 89 6 32-24 14-27-16-13-27 6 49-55 3-28-77 27-7-2-16 21 6-18-42 14-28 23-10-10-20z" />
					<path id="sarah" d="m-21244 2024 3 54-18 47-39 27-27 56-48 47-13-9 17-62 52-71z" />
					<path id="saturna"
						d="m-20046 7734 68 70 14 3-3 5-7-2-39-16 13 15-7 4-26-11-19-11-22-22v-25l12 3 16 10-15-21z" />
					<path id="sea" d="m-19827 7366-13 10-12 3-14-8-16-19 7-12 10-10 19 6 6 5 4 13z" />
					<path id="smith1" d="m-21467 220 15 60-20 16-19 1-21-6-9-11-4-30 2-24 39-22z" />
					<path id="somerville"
						d="m-21119-349 8 5-22 16 4 3 7-4 12-2-27 33-28 19-60-13-12-11-24 4 2-9 16-15 35-10 55 4z" />
					<path id="sonora"
						d="m-20597 5439 37 93 14 11-12 18 1 43-27-6-47 10-10-42-22 4-34-8-11 9-22-4-16-16 16-45 26-7 7 3 26 30v-22h17l3-14-12-2 4-11z" />
					<path id="spicer" d="m-21772 559 6 25-16 9-15-1 6-10-16-7 4-19 17-12z" />
					<path id="stephens" d="m-21761 4 37 96 2 28-22 18-24-11-57-81z" />
					<path id="stirling" d="m-21596 3217-24 31-27-2-1-10 28-33 19 8z" />
					<path id="stryker"
						d="m-21558 2792-13 45-8 7 1-20-6-5-7 15-6 1-7-10 2-12 5-5 31-6 3-7z" />
					<path id="stuart"
						d="m-20514 5514 6 5-4 23 10 20-4 8h-11l-14 7-15-5-4-10 9-16 10-2 1-8-6-1 2-8 8-2 4-10z" />
					<path id="susan" d="m-21392 2363 83 82-10 30h-27l-26-17-52-4z" />
					<path id="swindle"
						d="m-21392 2210 11-5-37 115-25 106-47 35-33-51-43-92-15 19-27-21-23-59 31-28 21 72 19-17-5-39 21-33 73 29 28 29z" />
					<path id="talunkwan"
						d="m-23092 912 11 19-6 19 15-1 27 19-4 14-66-13-11-15-26-18-9-12 3-25 12-4 17 15z" />
					<path id="tanu"
						d="m-23079 1030 9 21-7 17-17-9-20-16-22-8-14-41 23 12 14 14 7-2z" />
					<path id="tartus" d="m-21207 7004-33 25-34 1 2-15 20-18 38-12 10 9z" />
					<path id="texada"
						d="m-20486 6295-3 22 9 34 14 12 9 14 4 19 15 8 31 27 26 29 5 10 1 56 15 76 31 80 4 27-4 48-15 2-14-28-12-37-9-4-13-31-13-5-7-32-5-1-54-91 8-19-11-24 5-26-16 1-4-9-2-20-47-63-6-18 10-19 16-9-2-18 8-5 1-13 6 1 2 10z" />
					<path id="thetis" d="m-20292 7362 16 5 8 27v18l-29-4 1-22z" />
					<path id="trutch" d="m-21768 1391 11 53v36l-28 9-10-22-22-20-16-22 7-29 16-29z" />
					<path id="turnour"
						d="m-21165 4914-9 14-79-4 4-10-33 3-11-20-28-30 11-8 73 13 20 17 9-1 33 18z" />
					<path id="union" d="m-22050 5173 14 34-58 27-10-49 20-19 15-2z" />
					<path id="valdes"
						d="m-20234 7257 11 29-5 16 13 44 3 33-3 22-8 3-4-7-3-28-4-2-4-5-2-18 8-15-13-43v-17l2-1-2-14z" />
					<path id="vancouver"
						d="m-22007 4136 16 11 15 18v14l43 43 141 173-20 20-7 24 19 9 2-9 11 1 3-11 22 5 6 6-2 6-12 14-12 3-8 23 24 7-2 14 68 114 3 25 21 8 12 12 7-1 15 11 13 15-24-6-14-10-4 9 49 30 13 15 16 5 12 14-6 22 41 21 26 27-7 3-15-3v14l3 6 15-3 7-8 13 1 21 22 81 102 9 27 18-4 87 62h14l48 31 20 27h16l86 69 35 51 25 49 47 49 29 12 11 16 11 22 25 16 97 39 25 49 13 5 10 21 24 9-24 56 10 14-4 29-34 126-6 1-5-15-7-3-2 15 3 15 16 4 14 11-2 52 9-2 5 9 1 39-6 31-10 45v13l5 28-5 14-8 11 8 27 13 12 5 8 1 10-9 19 7 19 9 9 14 40 28 114 8 5 18 56-46 20-27-20-13-18-6 5 1 19 10 23 9 6 3 64-8 7-8 60 9 42 8 2 7 11-18 37 13-2 9 13 1 12 23-5 1 11 15 19 9 33 7 8-2 19 10 10 14 32 22 18 16 20 14 4 11 24 29 7 33 26 12 42 26 1 11 15-4 13 3 12 12 1 11 24 23-13 7 30 15 9 7 29h-13l-13-7-13-14-13-2-4 7 10 15 58 22 67 58 4 33-25-1 8 17v41l-8 24 65 33-7 51 8 71-36 1 13 39-19 6-26-54h-6l13 56 49 134 9 42 14 15-9 30-7-6-11 2-4 18 13-2 12 17-5 20-20 5-3 20-4 10-6-22-11-3-8-17-20 14 31 30 11 29-4 9 7 20-9 27-13 10-8-9-1 16 5 20-1 20-14 24-4 23-10 6-20-5-9 5-5 44 17-35 23 3 24-17 8 7 13-13-7-13 7-12 20-13-11-5 10-11 25-5-1-14-11-3-6-19 15-3-6-8 2-4 30 6 23 25-3 16-13-6v10l7 1 3 8-7 17-21 12v24l-2 18 10 9-10 36-23 39 17 35 14 6-6 20 10 21 3 14-3 3-10-5-2-12-8 3 2 8-6 10-4-2-11 9 4 3-2 18-8-3-42-17-14-17 16-6-9-9-9 9-9-1-13-20 2-6 10 5-5-13 4-7-6-9-4 4-7 20-6-3-38 26 4 11-28-8-35 22 8 15-12 1-10-15 2 17 3 13-24 6v-5l-8-5-6 2-8-15 21-18-17 1-12-7-16 15-13-2-11-32-16-13 6-15 10-1 2-5-7-6 16-5 5 4 7 1 1 10 6 8 17 7 13-24-18-8-15-5-9 6-2-8-21 3-11 8 2 5-2 2-7 1-10-11-1-15-46-6-5-21-4-3-7-11-20-13-20-3-9-16-1-13-18-5-6-6 1-13-21-24-22-18-95-106-22-30 1-16-7-12-32-20-45-43-4-10 3-4 28-7 19 1 2-19-48-1-25 7-82-80-21-30-16-14-6-27-12-5-14-70h-10l-9-16 5-17h7l22 14 22-8 40-24 5 6 22-14 2-9 45-15 12-16 12-1-3-13-13 7-61 29-10 10-42 15-19 18-17 3-20-7-4 3-6 18-51-64-69-66h-13l-9-40 10-28 22-12-5-12-34 20-4-25-24-6-3-9 144-47 26 15 33-21-8-29 24-4 10 18 6-22 20-8 18 2 24 17 10-1 4-8 14-5 19-2 9-12 25-21 6-15 35-28-1-6 46-37 1-15-5-12 3-17 15-22 17-38-18-6-17 59-13 17 8 20-26 29-20 15-5 16-32 12-16-5 12 15-26 39-20 3-7 7-15 4-16-4-10-12-15-3-7-26-19-32-7 3 15 26 3 29-11 9-20-5 22-16-18-28-33 10-18-5-8-12 5-9-6-18h-11l-9 9-13-15 36-15 26-26 3-29-7-18-12-17-3 3 11 18 6 39-15-4-2 16-11 15-29 4-12 20 6 9-25 11-32 4-13-29-27-24 24 2 8-19-13-13 3-13 28 3-29-36-17 6v10l-19 17-61 19-18 10-7-3-16 11-12 1-17-10-16-79-13 9 18 33 3 28h-14l5-13-14-16-12-53 10-3-9-28-8-7-15 5-1-19 10-11-17-58-12-21-14-7-8 6-11-14-11 3-29-57 12 7 6-10-10-11 4-45 9-4 10 9-12 33 9 36 22 3-2-25 20 17 24 45v10l16-7-15-25 27 10 3-10 75-13 24-33 24 6-5-17h-32l-16 31-12-4 26-39-3-3-71 51-27-28 31-18 12-29 12-21 30-19-2-7-32 8-20-5-8-13 32-45 15-11 10-19-5-8 6-4 10-1 5-7 8 1 3-6-9-3-12 11-7-2-34 39-17 8-9 25-25-6 12-12-15-22-50 13 4 7-34 7-17-30 10-43 21-16 33 17 50-48 14-29 17 4 18-13-1-8-11-1-2 8-7 5-18-7-23 30-38 18-14 11-12-4-9-11-8-26 15-28 5-28-7-2 1-5 22-1v-17l21 5 7-5-3-16-9 11-14-6v-9l-12 2-20-10-2 7-23 6-11-6-10 3 9 5 6 6-31-12-18-18 1-20 16-11-7-12-8 6-2-11 14-79-3-4-8 43-10 24-8-6-21 19 4 5 7-8 21-2-1 28-9 16-11 6-14 35-10 17-14-13-16-46-2-29-30-28 11-15-9-28 27-15-6-11-19-1-22 19-8-4-19 14v10l7 4v14l-8 13-18 11-7-10-27-10-5-10 6-5-10-38 35-24-8-11v-11l19-15 18-24 8-4-5-25 9 1 17-44 18-3 12 6 31-8 33-28 8 6-4 13 3 8 8-7 29 12 11 18 28 6 36 18 7-3 29 14 8-3 30 7 6 14 20-2 25 17-5 22 9 17v18l4 9 6-18-9-19 6-26-5-31h-14l-20-13-45-11-12 3-20-2-58-23-15-21 10-2-2-5-28-11h-20l-20-53 79-42h15l12 13-1-22-37-5-4-12 29-16-16-1-15-27-5 37 4 29-32 11-9-28-6 4 9 29-8 7-18-4-25 2-25-14 2-53 12-30-2-12 10-37 29-53 30-57-6-3-16 22-22 35-20-16 1-12-16-2-10-12-4-36 8-26 4-32-21-22 12-18-6-8-15 27 19 22-9 45-19 8v6h-35l-28-9-7-7 10-38 15-17 17-52 5 3-2-20-5-2-22 55-34 54 5 8-14 8-15-3-8-11 11-24-10 8-8-24 11-35-4-6 4-21-6-3-7 56-5 14 8 27-6 9-17-3-39-42-22-3-20-13-3-28 6-52-7-3 6-46-13-4 2-5 12 2 33-12 29 2 9 14 7-21 13-2 16 16h16l9 6 1-10-23-5-23-14-24 1-4-12 25-9 4-27 27-4 30-7 20 6 8-5 1-10 6-4 8-24h-10l-5 20-28 8-58-14-8-16 8-15-25-72-16 34 11-5 10 28-6 15h-17l2 18-18 6 5 21-35-1-4-4-32 10-42-41 5-31-9-45 16-19 16-2 18 8 14-9h-11l-21-8-28 6-8-13 7-11 53-12 10-10 14 1 3-6-14-4-7 4h-19l-26 8-33 16-13-2-7-11-15 1-6 3 3 7-15-2v-5l13-6-19-5 4-34 17-13 15-7 12-12-3-4-12 11-11 5-10-6-10 13-10 4-4-6-113 24-13-7-1-7-21-21-8-19-14-20 7-17 68-13 54-18-3-14 60 5-6-19h-17l-18-11-12-33-3-32h5l5 7 33 1 6-11 8-1 10 16 8 14 17 19-25-51-15-7-17 9-10-4-10-12 8-36-28-3-4 4-28-1-14-16 6-35 12 9 45-48 27-6-6-17 17-24 15 5 8 16 21 9 11-6 6 3 15 24 36-12 58 23 37 33 23 1 9 63-4 48 1 29 15-4-4-21 8-12 2-26-12-95-5 4-9-25 17-2 8 12 6 2 51-29 32 11 36 15 6-17-13-3-8 3-18-7-10-19-26 3-9 5-11 1-5-32-36-30 2-9-67-38-19-8-25-29-22-18-5-12 2-5-54-52-6 2 21 29 27 23 13 20 5 2 30 35 27 27-9 5 58 36 18 15 14 6 21 45-18 16-13-19-12 6-19-14-116-12-3 8-16-3-12-15 6-22-23-3-2 12-20 3-14-17-17 2-36-8-8-9 3-38 23-7 4-10 31 1-2-5-23-6-37 22-5 9-10 2-8-11 8 45-14 11h-8l-6-51-6-2-4 9-6-2-2-47-11-10-1-20-13-11-4-19 11-4-10-38 16-3-1-11-29-39-2-32 18-11 15 7 10-5-1-5 14-5-9-12-19 7-32-31 7-21 14-2-7-57 11-3 9-21h-8l-7-9 8-16 5 4v13l28 1 5 8 16-7-3-10 22 7 5 18 10 4 6-7 32 15 34-15 26 3 17 10 2 7 16 2 4-9 18-6 36 8-4 10 21 12v11l16 6 19-3z" />
					<path id="vargas"
						d="m-21692 6405 35 31 1 30-13-6-16 5-9 23-15-8-14-26 11-1 4-17-12-12 7-17z" />
					<path id="w_cracroft"
						d="m-21269 4930 51 8 23 16 6-17 23 22v13l6 9 8 14-12 14-37 16-31-12-15-16-25 4-50-30-19-23-25-5-17-16-9-27-20-21 26 14 23 15 43 17 47 14z" />
					<path id="w_redonda"
						d="m-20364 5759-36 29-6-3-11 34 12 36 9 7v13l-9 22-42 8-17 16-25-14 12-5-6-6-9-1 9-48-11-8 2-6 28 7 30 12-13-12 5-14-8-2-16 5-26-12-6-10-8-67 8-17 11 8 7-14 42-19 21 18 8 19z" />
					<path id="w_thurlow"
						d="m-20745 5363 5 20-12 27-71-11-97-40-20-23 2-14 50 7 13 14 27 8 58-3z" />
					<path id="walbran"
						d="m-21410 3591-6 20-12 22-37 12-2 15-6-7-7 8-6-7 5-6-7-4-8 2-23-17 13-12 17 8 30-21 22-10-2 9 25-19z" />
					<path id="wales1"
						d="m-21246-461-2 63-9 20-51 37-7-13 4-12-13-7-2 12-12 2-20-42 2-16-7-37 20-5 9 37 5 1-3-12 4-10z" />
					<path id="watson" d="m-21287 4448 1 11 6 3 10 14h-21l-24-9-10-8 10-22z" />
					<path id="westham" d="m-19899 7439 6 8 16 30-3 7-12 4-9-5-10-18 1-21 5-8z" />
					<path id="yeo"
						d="m-21261 2582 10 4-5 37-28 90h-55l-12 10-27-1-19-23 14-23 102-68z" />
					<path id="zayas" d="m-21681-479 19 15-5 17-33 17-13-13z" />
				</g>
				<path id="killiniq"
					d="m15589-4304 6-18 56 5 44 26 15 21h15l-3-21 29 1 10 19v53l56 12 4 18-50-1-46-8-121 3-75-22-19-38 20-38z" />
			</g>
		</g>
	</g>
	<g id="BC" fill="#000">
		<path mask="url(#all)"
			d="m-22032-7952a34499 34499 0 0 0 8818 5321l-2585 6234 21 34 36 19-38 54 64 42 16 107-32 22-80-70h-21l41 308 182 90 15 202 121 119 40-106 47 14 81 170-39 63 29 203 110 82-44 74 43 144-68 23 46 196-56 91 4 12 116 5 74-85 126 216-122 52 37 114 47 4 41 98 43-16 127 23-23 112 111 256-23 31 17 31 7 157 63 18 88-92 49 40 2 151 42 87-12 41 41 37 1 17-16 17 9 50 43 28-47 138 145 187-45 81 149 114 77 229-69 6 112 241 56-13 1 94-28 6 34 64-5 65 53-31 95 16 29 161 57 134-29 112 8 75-25 74 18 72-22 104-18-8-29 74 11 83-8 47-20 14 2 44-40 24-12 68-62-3 4 73 91 32-49 93-15 79 52 71 17 161 111 67 40 55-16 67 44 62-21 43 2 5a46541 46541 0 0 1-5926-2289l-14-23-18-20-33-15v-22l4-15 10-4 1 8 9-3 7-10 2-16-14-11-10 2-37-2-49-8-32 8-12 12 7 14-5 19a46539 46539 0 0 1-37-18l4-26 11-14-13-21-18-26 20 3 15-11 19 5 23-21 29-5 11-8 13-1 39 9 11 8 25-8 22-19-12-16h-10l-12 2-11 5-9-2-8-20-16-18-15-10-10-8-14-3-11-6h-17l-9-13-3-10-9-8-11-13-9-22-12-20-3-24 23-6 44 31h22l2-32h14l1 27 37 23 12-1 40 18 15 13 27 10 31 16 9 14 11-1-12-23-35-11 2-12 40-23 32-30 22-31 17-52-14-1-5 26-14 23-13 27-29 23-38 9-13 24-7 1-16-14-12 2-22-7-33-34-16-4-50-60-27-10-14 4 8-40 56-42 27-108 85-84 6-36 27 5 27-15-27-16-45 2-23 62-21 15-37-13-32 19-20-19-93 16 5 34-20 42-43 43-34-5-11-30-62-70-20-13 1-37-83-41-15-30 6-26-23-3-10-16 15-138-21-23 76-89 53-5 35 67-15 25 5 28-23 171-7 12 2 41 5 8 12-16-5-31 11-5 16-76 31-7 153 6-3-11-65-6-10 9-16-11-92-18v-35l49-20 1-8-39-2-3-74-22-47 19-2 81-74 6-35-35-45 5-54 25-14 35 11 40-11 66 1-5-12 47-16-17-39-3-35-74-119-9 20 54 96-1 34 15 23-46 22-75 8-23-6-39 9-12 29-1 75 29 44-37 39-13-13-31 27-14-18 8-74 25-32-3-21-51 53 4 42-31-23-18 20 7 26-45 2-94-39-1 26-11 8-29-52-42-15-22-18-43-61 15-48-81-183-7-128h31l20 10h56l-3-35 83-10 37-42 22-84-38-60 84-49 73 38 121-10 20-22-5-14-33 14-100 7-70-49-118 59-49 13-66-75 31-33 10-62-12-24h-12l5 27-12 51-38 25-19-22-3 21-23 11-12-22 12-27 33-15 54-100 63 4 37-15 2-24 31 11 23-8 31-57 28-28 6-26 25-9 18-31-7-35-16-14 5-41 40-5 27-17 16-23 41-8-2-41-25-11-6 26-76 48-21-11-39 21 17 32-14 21 25 53-27 7-31 35 2 41-47 36-46 4-14 31-95-2-21 60-68 11-18-37 7-19-15-22 30-36-24-5-31 29-19-40 27-64-28 5-1 28-35 28-36 6-43-26-54-25 96-77 7-31 61-77 40 5 30-24-19-22-11 26-45-1-40 31-42 80-99 86-66-8-27-113 70 9-23-22-27-7-94 14-130-83-76-72 5-20 68 20 12-28 40-1 149 22-14-22-42 2-91-17-37 2-27-17-10-16-2-49 88 23 30 22 78 16 77 38 45 3 82 37 34-35 20-14 37 7 31-27-5-69 28-18 39 28 70-55 10-86 18-29 3-22-39-57-10 28 12 49-14 7-2 38-20 19 15 42-30 27-18-2-5-13-30-5 2 14-38-2-28 55 15 19-14 35-25-14-38 18-15 36-172-59-21-30-40 4-76-27-1-26 17-21 152-17-4-15-73-2-42-33 10-28 32-19 18-25-3-16-20 27-22 4-24-12-10-23-19-6-8-12-38 2-79-20-12-10 3-14-30-21-3-44 103-19 21 35 26 1 57 33 54 44 25-17-9-19-18 11-41-35-52-27-41-39 12-92-14-13-22 18-4 71-103 21-34 7-33-26-18-47-29-14-6-20 61 16-30-51-7 4-18-5-17 13-22 4 1 14-14 15-24 11-34 7-33-4-24 13-107-181-33-7-34-49-34-127 66-72-98-42 2-68-19-6-22-49 38-61 22-12 33 4 66 11 12 13 8-5 16 14-25 6 78 44 13-15 97 40-38-44-48-28-37-30 13-25-106-35-51-22 16-46 58-12 37 18-10 25 51-41 62-20 14-22 33 1 65-103 143 22 27 18 12-12-43-36 5-12-8-7-16 18-37-7-13 9-11-16 32-33 10-35 18-19 24 15 61-54 16-33-81 72-20-20-26 30-23 50-56-51-54-25 104 85-35 29-44-17-54 51-71 35-80-49 37-80 39 8 10-16-57-48 6-72 113-195 111-2 41 27 50-68 84-69 69-11 21 36-25 31-1 3-58-36-48 39 11 16 38-30 18 20 59 17 20-38 8-68 128 10 128-37 65 55 25 60-21 90 24 57 25 174 23-12-37-189-16-43 25-115 37-26 106 24 1-31-114-20-34 22-101-69 5-41-13-17 32-17 4-27-14-26 24-13 7-47 12-15 130-28 36-3 34 15 35-44 56-20 1-50 18-29-10-35 21-11-6-12-18-7-12-62-13 6 18 89-27 40-6 56-82 48-52-2-130 27-45 76-40 1-13 13-19 4-37-20-16-85 2-47-14-84h-8l8 69 3 85 9 57-20 2-20 21-14-2-2 23-18 12-80-18-11 20-22 2-5-15-17-9-35 8-24-17 28-35 41-23 9 11 4-8-12-15-15 5-30 20-37 38-95 40-1-28 20-40-5-26 17-37 21-29 50 11 9-16-14-71 9-38-11 13-7 22 1 70-44-5-19 32-16 1-36-26 31-124 18-26 29 12 3-23 36-15 2-28-36 10v-17l-19 1-5 18-59 39-15 20-171 106-33-33 7-31 38-23 21-41 34-18 33 11 62-56 31-91 79-38 30-40 77-60 15 2 57 64 9 20 43 1 4-10-41-2 1-13-13-11v-15l1-1 8-18-6-5-8 10-6 18-18-18-22-31-29-8 39-57-2-19 31-39 58 12 6-9-26-6-30-16-22 9-22 30-35 5-41 27-55-29-31-51-19-1 1-88 67-148 3-41 21-104-45-78-34-107 1-57 57-92-3-108 25-35-7-12 15-6 21 35 26 21 49-22-13 93 36 21 19 57 36 81 119 10 7-26 38 56 62 26 23 52-12 49-42 26 4 13 53-15 3 42 31 39 11-4-26-41-16-173-96-50-26-49-28 18 1 22-101-18-6-70-39-94-11-85 4-58 73-46 7-60 131-36 31 52 52 35 9-33-56-22-43-66 10-23 59-30 23-39-18-17-22 28-50 29-128 58-69 15-101-6-51 24-91 17-112 196-24 9-22-2-6 39-9-3-23-46-72-312 7-135-24-95-27-149 11-93 71-107 71-62 40 30 45-23 70 1 37 48 34 18 10-11-73-74-74-1-58 5-22-20-47 5-10-43-16-33-18-16-6-17 9-39 17 11 38 2 14-50-1-41 42-31-6-9-35 26-60-2-18-12-2-28-21-4 1-37 38-65 41-9 6 16 23 5-14-44 23-44 26-22 14 2 12 16-4-82 26-8 7 27 8 56-6 63 3 74 18 111 1 39-7 27 20 62 7-5-15-41 6-28V62l43-26-8-6-23 15-10 3-16-99v-104l9-5-19-88 33-33 26-11 36 13 41 7 36 34 4 58 5-13 9-5-8 53 8 30 6 1 8 30 16 19 2-8-15-26 1-10-15-46 6-45-11-7-7-37-22-21-9-4-3-7 15-7 22-26 12-9 12 4-2-8 18-23 20-5 24 6 61-32-3-12-64 27-27-11 33-21 93-41 42-9 11 10 12 27-48 17 3 14 36-8 35 13 39-22 96 65 18-16-21 1-46-52-49-26-34-1-28-48 30-38 50-32 75-29 35-39 60-38 29 3 85-60 16-44-108 33-13 44-82 47-26 34-132 58-24 32-48 20-21-3 30-117 33-19 24-26 177-68-4-65 58-122-2-54 15-70 84-106-7-43 18-33 40-32 33-7 45-30 27-10 32-32-5-8-14 13-5-4 62-84 14-139-89-21-35-63-32-37 37-107-35-27-31-45-24-143-133-135-18-68-90-191-20-90-136-72 49-103 10-59 46-38-85-144 142-130-132-148 131-69 24-165-1-193 21-143 4-101 31-167 2-210 45-170-6-166 14-137 66-12-28-140-14-128 11-147-110-253 3-80 35-27-32-45 49-45 13-115-38-26-12-91 26-56-97-113 11-80 44-23-24-71 26-14 37-4 56-78-2-81-16-15-3-53 15-33-7-8-22-69-14-92-296-36-119-60-97-19 24 73-23 30-68 30-38-8-37-51-116 159-17-1-8 16-104 48-111-77-101 2-206-21-135 19-35-24 65-58 127-257-81-795 10-49 51-94-27-50-58-144z" />
		<use xlink:href="#i-CA-BC" />
	</g>
</svg>