<svg
	xmlns="http://www.w3.org/2000/svg"
	xmlns:xlink="http://www.w3.org/1999/xlink"
	width="80"
	height="80"
	viewBox="0 5000 16000 10000"
>
	<defs id="defs1">
		<mask id="all">
			<g>
				<path fill="#fff" stroke="none" d="m-24500-27050h55700v47100h-55700z" />
				<use id="LAKES" fill="#000" xlink:href="#Lakes" />
				<g fill="none" stroke="#000" stroke-width="40">
					<path
						d="m17072 12065 28-30 64-131 127-130-1-96 54-71 63-32 25-62 28-33 19-59 73 5 56-12 285-249 16-46v-43"
					/>
				</g>
				<g fill="none" stroke="#000" stroke-width="96">
					<path
						d="m-13214-2631-2585 6234 21 34 36 19-38 54 64 42 16 107-32 22-80-70h-21l41 308 182 90 15 202 121 119 40-106 47 14 81 170-39 63 29 203 110 82-44 74 43 144-68 23 46 196-56 91 4 12 116 5 74-85 126 216-122 52 37 114 47 4 41 98 43-16 127 23-23 112 111 256-23 31 17 31 7 157 63 18 88-92 49 40 2 151 42 87-12 41 41 37 1 17-16 17 9 50 43 28-47 138 145 187-45 81 149 114 77 229-69 6 112 241 56-13 1 94-28 6 34 64-5 65 53-31 95 16 29 161 57 134-29 112 8 75-25 74 18 72-22 104-18-8-29 74 11 83-8 47-20 14 2 44-40 24-12 68-62-3 4 73 91 32-49 93-15 79 52 71 17 161 111 67 40 55-16 67 44 62-21 43 2 5"
					/>
					<path d="m-8064-955-1627 6771-240 997-947 3941" />
					<path
						d="m-3793-208-459 4145h2l-41 378 24 3-41 378 24 3-41 378 24 3-41 379 23 3-41 379 24 2-41 380 25 3-40 380 23 3-41 381 23 2-40 381 19 2-40 382 22 2-40 382 19 2-40 382 22 2-36 344 5 1-40 387 21 2-40 388 21 2-40 390 23 2-40 389 21 3-21 201-19 189 21 2-39 390 18 2-40 393 22 2-19 197"
					/>
					<path d="m3578 3252L872 6807l-974 991-9 3817-1 429" />
					<path
						d="m10559 8018 1045 4210-23 144 163 171 37 170 96 87 55 80 97 82 29 1 93 128 76 53 54 93 117 80 119 42 14 47 37 16 235-29 65 25 40-37 87-23 80 14 37-17 122 15 121-3 4-22 91 19 272 95 18 71 87 72 183 41 49-38-39-84 26-21 65-4 52 30 5 78 32 53 48-7 23 35-16 33 117 117 114-12 100 38 93-48-10-45 95-39 108 19 128 82 39-15 89-132 218-162 59-70 92-21 69-44 37-71 166-29 52-34 91 18 61-10-1 3 77 1 26 304 156 84-71 93-17 81-3-1-20 28-23 18-22 9-37 38-8 18"
					/>
					<path
						d="m15755-4173-90 42-53 69 7 32 92 19 70-15 32 46-72 45 43 57-106 27 89 74 125-23-4 72-40 5-2 80 86 95-36 77 23 108 109 6 79 43 31-41 42-111 66-2-50 132 92 189 81 118 75-26 81 53-78 78-158-30-69 38 55 161 70-73 109 19 31-44 138-34 36 96 65 10 15-86 93-139 137-14 83 55-94 107-157 98 7 112 84 58 29-82 42 2 56 46-5 78-59 16 18 81-73 36 29 152-66 93 54 114 116-21 216 218 5-51 69-26 53 78 125-10-20-65 28-31 42 72-46 133 76 118 68 64-63 73 30 86 75-28 47 179-46 9 122 203-65 48 38 80-30 110 198 105 66 73-29 65-116 33 144 136 61-58 75 39-78 108 73 71 57-98 51 53 54-42 49 18 112-63-5 48-153 186 157 92 31 126 47-18 60 147-33 49 87 27 195-92 25 30-123 99 30 34-58 67 52 15 116-66-44 149 122 245-163 20 85 124-37 60 188 83-179 131-142-70-193 13-10 88-130 48-33-89-160-35-102 12-26 176-144 42 75 52 23 55-127 23-4 51-157-87-43-74-122 55-73-27-50 32-353-197-9 39-121-69-7 58 109 44 8 116 127 89-39 36 154 146 12 109-199-23-285-120 7-37-73-13-66 68 218 159 185 98-68 154 47 104-179-36 39 96-115 118 170 233-67 83 48 121 272 102-43 60 20 32 54-19 230 151 149-49 135 84-37 98 52 34 82 232-206-33-57 82 172 223 107 6 28-66 88 99 118 38 84-145-51-189 69-172 186 147-79 37 206 222-123-22 187 286-72 46 74 101 109 64 45-44-88-149 191 87 24 79 96-4 38-84 120-36 62 69 36-136a43104 43104 0 0 0 6 0l8 1 23 48 126 48 60 143 37-71 121 70 151-37-3-52 100-37 37-13 175 128 37-131 47-31 5-79-101-82-66-132 59-40 4 4-66-89 11-106-89-98 2-161-129-141-43-165 208-170 14-141 71 105 173 33-230 176-77 94-8 122 93 84 166-14 209 202-112 42 62 67a43223 43223 0 0 0 3895-2352l121 177 133 196h-1l108 160"
					/>
					<path
						d="m19218 9964 154-127 124-149 72-186-165-371 179-80-38-86 357-162-3 17 35 57 40-8 26-3 106 8 22 16 3-58 39-21 57-8 34-56 46-49 84 19-30-57 9-47 38-47 51-12 4-11"
					/>
					<path d="m23343 9612 4 17-73 35-4 8 4 16-6 60-13 54 4 46" />
					<path
						d="m-15092-14714-775 1016v11l-33 36-1 14 52 67-130 203-42 119-122 63-92 171a26929 26929 0 0 0 801 583l-103-46-29 68 42 50-44 160-111-13 53 227-63 6-1 2-184 156 67 69-47 135-118 34 29 71-66 50 50 74 209-8 26 76-80 52 28 50 124-58 70 13-20 65 78 22-22 41-145 22 37 154-33 174-179 118 2-2-93 15-70 63-112-10-30 86 94 9-62 100 67 43-17 50-108 10-42 87-87 16-3 71 76 24 32 134 41 42-30 182 66 60-152 89 124 71 93-20 74 95-27 292-69 14-6 115 49 27-57 35 70 126 23 134 104 9-55 105-120-7 3 70 74-3 11 300-61-21-55 105-80-37-65 33 64 125-23 125 74 91-168 128-38 333 75 189-108 38 23 48-95 71 15 80-70 45 172 178 129 2 29 274-17 102 64 15 6 65-67 43 115 381 110 45 45 84-88 299-84 14-33 110 72 23-103 281 98 42 67-2 63 67 54 37 45-77 56 30 32 76 117-61 17 131 35 28 47-10 34 78 80 37 55-26 178 56 65-96 120 71-62 192-93 36 1 285 84 60-56 82-22 329 1 10 53 113"
					/>
					<path
						d="m-3208-21147-2324 9668a23675 23675 0 0 1-900-235l-26 92-3 27 38-1 5 26-46 12-42-9-21-20-9 31-84-24 50-173a23675 23675 0 0 1-1498-488l-51 110 86 328-69-30-1389-451-663 1553 2397 3710a28552 28552 0 0 0 795 212l421 843 1906 706 1349 501-503 4551"
					/>
					<path clip-path="url(#nu_nl-clip)" d="m15741-4139 5-203" />
					<path
						d="m-22032-7952a34499 34499 0 0 0 5051 3483 34499 34499 0 0 0 1885 991 34499 34499 0 0 0 1882 847A34499 34499 0 0 0-8064-955a34500 34500 0 0 0 4271 747 34500 34500 0 0 0 4 0A34500 34500 0 0 0 94 1"
					/>
				</g>
			</g>
		</mask>
		<clipPath id="nu_nl-clip">
			<use xlink:href="#killiniq" />
		</clipPath>
		<clipPath id="nt_nu-clip">
			<use xlink:href="#victoria" />
			<use xlink:href="#melville" />
			<use xlink:href="#mackenzie_king" />
			<use xlink:href="#borden" />
		</clipPath>
	</defs>
	<g id="Lakes_and_Rivers" display="none">
		<g id="Islands">
			<g id="i-CA">
				<g id="i-CA-ON">
					<path id="albany" d="m9045 7452 50 45-3 5-43-4-52 10-42 18-32-4-19-9 68-35 21-21 22-8z" />
					<path id="olimisk" d="m10455 8383 5-12 21 1 29 44-4 3-15-2z" />
					<path id="partridge" d="m4509 4072-6-20 9-25 32-19 36 16 5 19-52 18-17 9-7 19-4-3z" />
					<path id="ship_sands" d="m9962 8320-17 7-1-21 15-26 8-8 16-7 5 11z" />
				</g>
			</g>
		</g>
		<g id="Lakes">
			<path
				id="Amadjuak"
				d="m10462-7203 114-48 16-25-151-47 31-31-25-14 5-24 26 3 15-22-50-44-23-61-26-17-67-13 10-62-11-39-83-56-11-41 22-2 148 100 108 2-2 22 37-2 67 45 99 19 61-17 79 56 127 159 48 19 59 65 21 55-13 18 8 42 33 22 22-31 13 16-22 45-75-39-33-3-24 36-61 13 13-33 20 1 26-18-15-33 18-44-57-7-16-20-41 1 7-26-61 1-26 47-33 9 3 55 25 66-16 49-103 20-37 78-67 1-20-31-61 12-99-84 36-41-3-6-51 21-26-22 1-31 98 15 48-36z"
			/>
			<path
				id="Athabasca"
				d="m-8521-67 161-73 39-48 144-72 43 16-3-44 80-26-55-18 53-60 92-33 62-50 191 38 12 74 23 28-14 28 24 21 54-28 57 3 38 44-144 81 110 45 133-64 22 32 32-24 63 46 77-25 180 104 146 42 22 34 183 91 115 10 64-6 1 9-59 15 146 30 12 68-93-17 14-27-59 2-16-23-107-17-17-29-102-12-15-13-83-27-44 16 2-57-62-10-92 108-63-8-144 49-133-16-166-11-51 14-31-18-25-35-102 35-44-26-10-39-2-23-41-18-24 12-7 32-39 23-213-5-74 12-136 68-46-2-150 111-60 101-6 20v2 1l4 6 21-20 2-20 39 1 3 46-35 5 17 19-31 38-83-72-43 30-27-22-11-45-79-42-9 20-85-58-21 26-23-5v-37l-25-5 1-13 51-3 67-50 58-1 60-27 26-62 71-39 4-31 133-139z"
			/>
			<path
				id="Caniapiscau"
				d="m15296 3032 21-27 71-30 18 13 26-20-22-12 21-22 113 12-38-48 49-44-14-11-18 12-21-14 24-33-21-20-39 80-41 1-21-65-62-16-39-9 20-27-26-23 22-57 23-16 24 32 12-10-9-56 41 30 22-31-15-45 53-77 148-67-14-74 33 48 30-19 12 42 82-11 81 46-19-55h23l24 42 27-10 12-46 74-65 26 10-43 55 18 42 60 39 4 15-53 2 24 88 120 43 26-47 124 75 24-5 35 35-5 9-43-24-26 5-7-20-68-36-28 32 1 68-48-52h-40l37 106 21 55 56 19-11 45-24 9-20-43-26 3-14-64-58-49-75 98-29-47 15-31-40-31 36-51v-33l-39 13 3 27-31 1-9-26-22 1-11-38-53 13-191-20-60-31-65 29 102 80h-67l66 81 57-19 27 48 27-13 8-29 47-6 9 25-16 54 48 85-87 121 92 13 91-82 32 11-43 69-35 135 74-34 17-30 16 9-28 47 61 44 11-33 40-13 52 8 61-22-25 52-29 12 1-33-50 44-36-9 1 53-18 32 41 48-19 86-20-3 6-33-26-1-24 34-35-56-31 8 6 50-92-11 1-165-113 30-45-27-22 57 12 16-40 36-20-51 14-116-36-36-92-9-25 50-14-5 25-93-18-7-19 32-29-2-47 3-98-32 18-21-20-14 13-11 40 23 39-21 7-34z"
			/>
			<path
				id="Erie"
				d="m13370 17209 56 62-12 8 34 48-85 112-49 34 1 56-29 40-13 73-152 112-43 62-1 30-96 112-193 183-24 10-95 97-238 217-242 168-111 63-80 66-47 17-115 78-95 87-33 5-76 84-59 94-187 214h-50l-56 28-61 1-39-12-39 2-121 77-55 53-92 28-83 71-30 3-182-55-39 28-54-23-15 2 1 21-14 18-26 5-33 35-22-3-29-29-6 4-15 23-4-12-15-7-11 1 4-12 18-6 13 4 6-9 10-3 12-26 17-1 44-12 32-21 19 11 5-17 39-7 32-16 9-20-11-21-56 16-24-22-25-21-14 5-5 11 10 16-9 34-16 18-35 13-48-9-56-32-28-29-15-8-24-6-20 3-64-10-76-34-17 3-7-6 3-7-30-16-8 23-25 6-12-4-39 4 13-13-8-9-32 34-3-3 4-6-9-3 5-26 8-10v-13l-19 2-2-21 29-6-11-20-7 1h-2l-1-6 11-8-3-13 19-32 20-57 31-12 1-52 24-32 29 9 7-51 24-18 34-43-23-16-8-62 43-7 18-2 2 23 9 22 107 19 64 26 100-47 46-35 52-22 55-5 50 30 36 40 26 49-11-106 12-68 20-42 36-48 116-90 82-81 57-38 72-17 59-4 32-10-2-29-8-32-5-48 18-45 64-74 93-134 80-87 47-19 33-51 71-37 54-18 153-19 63-22 74-7 31 11 10-10 23 2 132 36 46-5 89-18 63-17 76-1 135-3 74-31-50 4-23-11-34 17-65 4-48-28-68 39-15-12-22 6 6 9h1l-10 9-24-30 9-21 35-49 27 11 23-7-6-52 60-115 142-51 121-52 140-86 63 14 35-34 37 12 13-20 40 5 18-45 88-1 9-21 167-31 32 23 6-3-6-22 66-29 58-35 4-20zm-2846 1987 23 39 3-14 35-24-14-24-3-30-16-33-6 17-8 9-12 3-11-5zm19 88 1 2 6-2 1-3z"
			/>
			<path
				id="Great_bear"
				d="m-12711-9425-13-259 81-117 60-25 35 70 79-11 62 94 120-83 84 113 134-31 272 9 24 41 65 18 44-60 141 61 17-25 84-2 18 31 80 18 332-6-11-37 83-1 82-49 48 15 12 26 158 14 74-29 85 25 243-5 3 46-29-5-5 30 108 51-15 26 125 57-22 22 95 57-5 22-170-12-2 28-264 29-288 82-5 34-49 12-20 68 76 46 62-14 55 59-32 24 100 85 102 37 28-25 79 57 165 79 100-12-9 21 107-3 150-61-14-12-66 24-3-9 62-59 91-61 217-13-1 4-29 11v17l-33 10-27 13 14 25-62 72-19-11-78 99 148-17 14 21 44-7-16 39-41-14-113 98 20 55-25 38-67 14 32 32-51 52-26-76-88 49 5 54-76 6 11 30-126 108 49 103 195-36 5 13-163 49 14 45 48-3 5 10-151 40-95-30-18-31-74-14-62 23 2-72-65-64 58 13-37-81-330-122-51 30 58 41 10 24-196 29-63-28 69 181 79 57 5 177-147-97-60 18-119 105-42-16-122 51-175 65-134-9-77 12-20 40-33-8-6 36-36 4-44-67-29-22 26-98 43-23 86 18 64 35 85-29 10-83 150-22 233-159 57-93-17-38 21-47-103-76-50-19-368 88-11-12-47 41 21 9-67 58-34 42 12 29-47 71-24-2 15 59-238 20 1 19v2l-25 13-82-133-101-45-264-221-51-82 13-41 149 20 83 40 157-71 15-59-2-83 70-71 220-8 150-115 1-57-118-124 21-41-19-25-77-31 3-8 74 29 97-1 57 36 137 157 130 52 114-7 60-82-24-66-78-8-31-34 17-23-20-76-57-98-413-188-55-9 32 71-19 32-38 11-25 32h-11l6-26h-25l-8 59-29-9 16-121-18-22-198-46-48 10-83-49-10-90-170-59-35 16 14 47-42 28 5 41-12 32-40-4-12-82-49 21-23 86zm2446 1345 31 25h78l108-42-54-78z"
			/>
			<path
				id="Great_slave"
				d="m-10182-4697 7 29 21 28 37 34-34 17 14 50 40 6 30 39 53 13 89 118-10 29 63 75 71 53 53 87 7 68 148 10 48-52 12-60 29-16-23 52-7 46 15 4 8 27-28 69 30 70 33-1 66 90v46l64 42-42 7 28 55 79 76-35 6 21 57 68-7 17 7-2 35 101 12 8-26 26 6 47 31 3-24 43-6 9 24 93-3 157 17 72-50 72-27 18-21 124-51 29-38 25 2 44-26 31 5 58-83-1-11 63-73 12 3 32-23 2-22 39-69 33-33 34 8 45-49 167-81 87-15 127 6 30-7 111 21 113 42 72-11 10 8-26 17 141 49 1 35 55 16 2 32 87 25 25-8 128 106-38 24-15-3-62 34 31 15 25-19 3-15 28-1 39-23 19 17-46 17-7 49-56 31-49 2-57 43-35 16-7-9 57-131-44-24-45-14-65-44-132-109-131-19-88-27-29-24-32 7-75-36-50 28 67 9 36 42-14 6-189-23-136 43-142 22-28 19-6 33-79 86-74 120 56-39 56-74 59-48 76-25 20-47 24 7 48-2 15 13 154-5 18 15 59 1 67 31 14-6-13-36 31-11 28-41-27-38 5-17 29 3 1 32 113 30 14-12 146 57-9 17 18 22 29 14-7 4-38-18-18-18-166-41-70-37-46 51 16 32 56 9 161 48 135 50-61 1 7 10-40 27-101 29-29-15-53 4 4-25-92-17-63 32-28-21-110-32-11 10 58 34-17 21 21 10 96-13 60-17 23 14-144 36-64-4-25 74-64-2-24-44-99 7-55 45h28l-3 17-92 7-42 42 61-23 10 9-159 85-67 11-32 57-37 2-42 34 58-8-14 27 54-11-10-18 61-7 19 21-40 23-79 60 10 9-145 46 17 16-51 33-16-9-202 153 6 28-248 82-50 25 13 10-49 34-3-13 21-26-75-19-5 39-43 9-30-15 26-30 22-4-80-79-62-2-82 9-206 107-30 50 28 120-37 66-73 50-128 8-59-34-54-53-117 33-68-11-26 16-77-9 1-24-24-12-167 16-34-12-54 17-101-20-90-40-25-37-34-12-56 5-71-34-35-53-83-63-54-94 6-47-26-15-33 2-91-65-121-57-72-44-19-61-15-41-1-38-32-45 9-29-55-52-2-32 16-8 7 30 24 29 95 140 91 81 58-36 54 5 40-5 31 21 16-13-32-101 28-27 56 35 23-3 13 18 26 3 10 47 40 31 68 15 98 142 24 7 7-19-25-47 38-12 50 10 20-38-54-87 61-9-44-20-30 13-13-11 39-19 32 17 1-33 37 8-19 29 23 12 4-13 75 1 13-20-28-6 19-21-5-53 32-6 89-122 53-1 12-24-30-12 35-40 64 5 75 20 26 28-15 27 29 2 26 25h32l6-20 58 18 14-18 15-4 22 8-15 14 32-3-5-19 9-5 38 13 52-25 1-10h-46-1l-5-12 41-13 9 15 27-3-8-22-28-3 1-15 52-32-8-23-37-9-21 7-5-14 17-14-9-40 15-15-23-29-24 2 9-41-28 2h-1l-8-15 8-9-34-44 12-7-2-10-10-5h-2l6-17 29 3 3-11-24-14 1-13 25-3-30-51-28-5 12-37-40-7-46 6 7-28h15l18-14 5-25 20 2 17-16-16-18-19-10 50-126 22-9-16-22-37-20-60 8-43-16 1-14h-39l-36-18 22-21-19-13 37-32-8-23 6-17h-19l-14 14-21-3 30-50-9-13-21 5-13-13 13-10-6-10-28-17 16-13-35-54-17-9 2-18 24-14 4-22 38-18zm1313 1540 137-61 274-86-528 85-93 41zm-6-235-47 7-23 51 87 10 156-38 53-49 63-14 59 10-8-36-155 16-48 28-164-18zm493-64 104-32 7-116-19-21-27 20 10 25-124 112zm-613 462-5 24 27 20 77-6 109-29-59-63 34-16h49l43-73zm3-122 21 29-31 24 45 32 76-37-3-16 52-34-80-33zm459-208 58-5-5 11-87 19-2 7 138-26 1-12 67-34 33-38-47 2-126 31zm442-231 35-52 73-43-7-22-139 88-35 48z"
			/>
			<path
				id="Huron_michigan"
				d="m10472 17756-80-111-49-113-61-236-67-126-34-109-41-134-40-82-26-28-82-115-49-24-70-14-36-15h-1l-38 4-48 34-20 54-38 5-13 14-101 45-24 64-53 19-26 1 1 9 50-5 13 21-41 57-7 35-7 4-44 126-18-25-31 59-76 126-53-32-92-14-4 5-3 1-51-22-49-76 13-31-5-161 35-89 63-14 26-17 41 8-11-39 15-34 34-17 34 6-17-36 13-37-10-53v-71l8-43 21-28 36-5 16 14 10-32 30-54 28-7-5-87-11-43-5-112-19-73 13-56-1-63-26-34v-22l-45-128-64-17-45-30-28-107 14-29 41-27 14 30 81 15-17-22-25-5-25-97-39-22-63-90 20-1 6-20-65-47-76-28-8 12-65-8-77-42-45 15-56-25-54-35-37-13-72 12-32 11-33-14-15-29-11-31-79-67-97-18-32 15-35-12-12 10 17 13-6 8-30-3-87-50-135-45-13-23-32 3-15 13 11 13-12 25-104 6-56 7 50 25 6 23-38 64-44 33-29 66 3 37 32 77 58 42 91 1 9 30-94 50-74-1-53 22-51 60-21-5-47 63-7 43 9 53 30 83 1 99 8 63-20 87-22 90-25 25 3 32 1 2-14 30-40-8 9-30-2-40 14-21 23-25 3-42-7-77h16l-16-37-12 5-20 22-1 45-22 45 10 12 2-16 19-1-3 24-12 16-16 56-5 57-32-6 1-24-19-43-5-45 11-51 16-5-6-73-7-2-18 31-14-6 11-34 20-22 6-43 9 13 8-2-53-90 38-37 20-24-1-17-8-20-13-2-13 32-18 12-19-6-29 79-16 55-31 26-18 51v37l-24 42-44 14-23-23-33 1-22 73-20 10-29-13-23 12 14 98 3 61-8 35-118 56-3 47 43 99-6 104 7 60-3 92-44 119-51 153-46 49-18 30 17 33 34 44 31 96 27 80-1 50-45 95-19 60 14 62 65 100 26 76 74 141 143 235 49 130 51 304-7 68 6 197-25 143-33 120-88 157-68 252-36 57-93 103-109 95-154 97-125 46-78 2-72-17 19-37-18-12-35 28-51-42-17-40-71-102-93-255-36-27-75-97-49-115v-74h10l-2-125-16-49-10-83-12-44 25-110-10-48 16-25-47-40-32-46-14-99-16-31-32-29-7-35 24-38-15-29-26-40 13-41-36-93 14-68 5-93 43-83 5-35-9-80 57-148-10-54 6-38-32-49-15-80 21-131 22-66 3-64 71-62 20-36 2-47-15-41-18-33-9-35 14-58 18-206 40-90 34-103 6-43 8-43 22-33 8-37 49-41-13-36 32-31-15-14-3-26 13-37 22-16 5-63 14-5 5 15 14-2-1-19-16-11 4-13 23 18 5-46-28-26 6-14 23 20 11-15-16-93 41 13 3-77-16-19-44 20-18-10-4 49-20-5-10 44 4 35-35 10-7 44-42-19-24 143-14-3-29 49-36 124 22 19 6 62-52-60-32 44-15-2-28 23-31-9-27 21-71 132 6 37-25 56-92 61-36 90-58-8-32-30 18-14 1-92 16-82 36-71 9-40 26-20 19-62-12-41 25-33 70-22 72-19-8-80 6-28 19-14-24-45 14-38 100-171 65-148 45-163 54-122 46-33 45-68-25-13 9-90 29-19-15-11 23-60 26 13 5 21-38 58 14 24 34 149 18-31 75-36 45-97-20-61 30-15 22 27 61-5 52-77 22 18-19 99 22 19-5 8-47-9-14 60-37 51-9 18 38 51 64 16-27-61 29-10 2-54 38-1-1-39 55-18 24-45 46-10 7-128 79-74 44 3 47-21 72 7 75 27-10-39 79-41 43 10 78-11 37-85 64-79 45 5 16-20 38 23 27-22 115 30 47-7 96 26 46 27 54 58 19-2 62 55 15-5 46 26 38-18-39-66 19-7-25-24v-27l34-12-13-61 14-31 44 18 57-1 16 54 1 1 15-4-4-25 21-3 3 13 15 9-3-36 23-4 66 26-4-23 70-8 57 9 54-21 47 10 56 14 8-21 55-15 6-16-4-26-33-21-20 3-5 14-91-79 30-41-75-25-49-8-31 26-26-12-13-37 36-24-3-19 20 3-13-31-27-20-6-48h73l11-10 17-19 31 24 91-32 34-10 15 33 59 4 21-12 70 21 61-28 36 29 15-7 329 20 20-18 32 9 4 17 178-46 79-33 64-28 2 4 1 1-35 25-1 29 38-5 64-22 38-26 23-23h10l7 23 67-22 39 8-41 10 68 24 10-14 40 2 64 28 56-19h79l68-18 119-38 10 14-24 24-24 20 23 35-3 15 22 7 7-52-20-9 86-23-16-16-13-32 36-7 28 14 36-2 1 17-18 12 5 10 22 3-66 43-23 1-39 30 4 6 25-11 32-21 34-18 58-23 6 9-30 19-22 6-69 30 4 3 83-14-56 57-36 25 21 2 35-26 57-61 17-18 9 2-1 14-19 34 12 23 48-57 224-64 10 21-26 63 45 8 11-32 116 3 45-18 6-18 16 5-7 16 96 6v-35l21 5 35 80 18 24 72 42-20 33 173 175 53-38 36 4 19 117 16 26 53 1 11 48 19 24 42-9 15 11 18-15 33 14 6-10-34-24 13-35 30-21 35-3 44 64-36 2-5 36h-59l-24 21 8 47 41 50 18-27 28 24 1 43 35-21 26 32 47 34-77 12 62 54 34-3 7 27 79 48 23 48 25-39 41 16 9 23-13 10 24 23 22 41h33l-11 30 48 19-3-15 15-1 10 14 3 26-13 33-18-30-9-2-17 40-18-33-25 15-6 18-16-9-12 7-5-16 17-20-20-28-40 16 5 13-7 8-9-20 27-43-17-21h-31l-55 29-10 43 9 14-21 9-9-23-33 24 12 66 84 9 57 58-5 76 16 14-5 67-28 53-36 30-72-26-84-14-11 16-36-10-41 7-99-40-27 9-23-7-49-26-36-91-84 18-50 49-27 81-26 15-14 47-9-30 10-173-16-32-19-13-23 12-25-10-31 8-47 43-35 49-2-38 66-94 8-42-23-13v-28l43-50-32-13-28 6-19 21 8 26 20 11-26 10 5 20-27 9 7-16-7-13-15-1-27 33-10-9 29-42-12-20-70 16-7-10 12-36-25-6-13 27-31-32 4-12-6-51-28-40-25-1-21-19-7-50 24-38 5-18-17-15-66 19-67 25-47-5-92 7 4-10-38 14-24 48 5 12 18-2v15l36-9 3 14 42-1 12-19 8 5-2 42 55 32 26 39 32 33 9-6 48 74 34-36 11 9-2 22 18 2-6 53 39 57 57 55-6 12 26 38-8 17 3 14 11 1 10 34-23 4 9 19 25 20 11 55-36 81-41 144-51 30-36 91-13-3-18 34 17 24 1 45-13 98-65 130 33 57 7 46 21 49 7 29 31 180 61 199 16 121 22 71-10 54-26 59-75 83-69 54-32-3-3 20 15 10-56 106-32 24v26l-44 41-129 57-29 21zm-1249-3167-20 49 11 49 103-11 22 25 19 2 3-16 28 16h35l2-14 43 34 36 7 16-31 25 20 16-15 28 22 18-13 22 6 14-16 49 25 89-8 38 41 46 2 6-14 53 12 10-6 18 4 6 16 18 7 9-13 13 3-2 16 40 8 56 27 60 5-20 18 34-3 1 24 51-13 47 7 13-28 12 6-3 13 69 20 36-36 28-77 53-118-23-7 48-66-3-59-91 37-14-14 39-46-9-75-32 4-47 157 3 23 14 21-12 16-13-26-26-6-17-42 11-81-81-7 7-73-22-26-52-3-98 104-9 107-62-95-4-29-19 5-15 41-23-14-12-70-111 62-6 42-22-26-19 1-5 47-35 1-18 38 44 24-5 41-19 1-7-28h-11l-11 32-21-1v-1l-18-42-66 53-18-54-22 4-43-21 19-85-9-15-52 51-25-2-26 18 6 13-38 28-6-22-50-9 2 49-33 2-9-32-20-9zm-609-11 32-12 7-76-10-13 18-15 45 23 6-68-7-12h1l13-18-11-19-20 14-34-42-29 14-52-61-37 14-31 27-25 6-17-21h-27l33 88 33 49 57 28 14 20-10 12 36 29zm416 32-2 28-18 14-13 48 19 21 3-3-6-18 8-8 93 40 34-30 26-48-9-57h-11l-3 9-7-1-7-9-7-1-7 8h-11l-15-26-11-9-42 20zm-264 89 11-26 23 15 69-22 49 21 54-3 25-90-56-19-52-79-47-7-55 12-10 22 51 8-14 41-18-2-58 74-38-39-14 67h3zm1389-349 52 10 38-21 93 10-4-20-63-23 9-20-26-28-104 44zm-580 219 83 19 46-46-12-51-88 23h-1zm1069-277 5-12 59 19 6-10 36-5-3-31 15-5 12-26-155 45-31 14zm-3222 850-24 63-6 100 14 20 58-6 32-37-4-52-22-80-21-26-37-4zm-1035 596 75 3 8-88-84 6zm1774-795 87 66 78 9 28-60-122-27h-59zm2245-724 36-7 12-10-4-10-23 4-15-6-24 9zm-36 705 32 32 51-59 12-66-57 26-32 37zm1402 417 33 32 44 17 5-8-28-25 23-24-28-48-28 24-28-19zm-4652 529 14 43 48 42 33-14-20-18v-47l-16-31-48-3zm-52 160 26 5 27-15 5-33-42-15z"
			/>
			<path
				id="Manitoba"
				d="m-3070 9021-4 44-35 20 24 12 2 34-14 31-20 15-19-154 40-20 1-22-30 4 19-69 70-83 23 35 61 4 28 90v-1l8 60 51 68 1-81 7 2 8 37h19l-11-71h-14l-8-85 31 23 6 46 42-2 17 97 33 240 13 7 6 47 17 40 10 4-3-45 9-44-9-130 10-87-11-5-18 21-5-36h-16l-20-57 11-3 7 11 3-47 14-7 41 32 43-34 33 133 14-1 23 33-45 42 15 70-29 15-12 72 10 4 9-16 36 112 28 14 74-1 15 13-22 34 24 37-41 36-31-13v22l-17 6-7 38 17 13 7 28-46 6-21-69-7 2 6 54-23 15 19 19-25 9-7 33 24 33-17 5 16 39-19 28 42 41 59 1 39 11 16 18 19-5 22 5 21 34 15 2 99 113-5 14 12 27 22 3 13 35 54 71 12 107 27-12 68 111 10 90-42 46-46 14-8 22-26 28-46 27-51 20-53 14h-53l-47-13-47-30-37-38-10-30 9-74 13-25 33-6 8-32-47-114-4-59-22-24-1-19 9-20-54-119-13-58-76-132-3-67 23-12-17-29h-17l8 32-39-9-17-117h-20l-19-71 15-32 17-1 29 87 30 2-17 82 28-6 31 20-12-68 50-30v-21l-26-9-32 40 6-62-10-38 25-25-3-96-67 61 12 43-16 2-6-23h-12l-35-92-26-3-23-93 6-186-44-14-21-32-20 39-24-7-7-113-10-6-25 44-3-25-40-22z"
			/>
			<path
				id="Nettilling"
				d="m10098-8795-33-61-52-42-23-55-23-18-129 30-5-36 104-22-32-125 11-7-4-32-19-67 35-13-33-158-60-8 3-36 56-34 53 3 15 28 25-33 18 2 14 14-11 37 38 21 22-11 52 4 23 63 53 53-12 38 21 12 20-37 40-9 66 19 96-50 56 13-1 19 93-21 17 31-24 53 15 21 71-78 17 6 22-15 68 19 17-43 33 18-97 123-56 54 64 15 28-20 24 4-5 18 19 17 27-33 49 13-2 52 2 5-57 57 22 62-43 45-8-49-38 72-67-43-16 40h-65l-50 107-80 8-12-47-87-30-26 22 36 29-10 137h-40l5 96-21 12-9 83-27 76-57 22-17-14 10-10-18-31 81-83-12-34-69 46-25-28 35-43-18-53 9-59-23-11-18-72 10-11-32-36z"
			/>
			<path
				id="Nipigon"
				d="m4307 10852 77-21 19-39-31-10-17-30 27-19-43-9-28-27 15-28 39 11 35-122-10-42 43-30 34-39 4-39 50-12 46 28 8 49 35-51 75 35 14 66 32-4 52 31-5-67-61-38-53-41-16-32 75-4 29 59 26 12 33-1 71 111 4 27-19 13-18-4-11-40-21-12-12 19 25 29 12 42-12 70 33-9-1-27 18-34 55 57 24-15 50 37-5 20-62 10 3 24-72 14 1 21 77-8 5 98-41 21 41 48 14 121-51 64 25 63-12 41 23 17 16 53-3 55-22-72-27-31-40 26-59-16-46 135-21-6-29-59 12-47-40 38 5-95-24-15-3-35-36 3 14 54 17 6-4 60-41 50-62-22-13 11-77-55 45-53 9-75 14 14 31-38 30 26 30 1 4-49-35-28-73 62-13-38-18 6 3 57-22 54-102 52-15 24-26-76-23 27-34-75 44 6 33 51 44-6-3-99-47-73 28-76-29-6-34 83h-14l-9-32-9-15-4 46h-8l-6-63-10-4-5 23-23-7 3-93 32-22 8 64 36 6 7 24 50-55-24-46-22 4zm191-26-36 37 53 24 17-11 79 51-26-62-37-33 16-21-7-2-37 8-17-29zm194 313 67-13v-99l-64 38zm-156-392 23 24 52-109-82-7z"
			/>
			<path
				id="Ontario"
				d="m15380 14696 6 2-16 36-6 49 29 23-36 56-110 204-103 95-69 85-32 45-18 36 12 13 8-7 7 6-10 18 58 2v36l17 19 5-6 18 8 4 12-7 26 8 7 14-13 16-27 7-41v-13l-12 5-47 33-2-30 13-31 15-10 18-20-4 23 10 2 22-17 29-3-17 35 12 3 10-16 16 2v11l-16 27-27 14-11 27 15 10 30 3 20-13 29-48 24 6-1 18-18 1-30 51 26 43-12 12-9 1-28 38 3 18-29-8 4-18-8-5-26 10-17 36 5 19 65 23 34 57 43 100 21 108-11 37-44 30-37 12-21-9-37 17-35 42-7 23-54 50-41 54-30 90-25 11-26 37-90 51-41 42-163 26-162 57-105 63-10 17-17 12-20 1-88-26-58-32-45-10-100 17-70-3-149 33-271 72-116 51-148 86-119 79-51 30 8 3-4 3-5 2-8-2-44 14-83 77-74 55-50-10-64 21-80 7-40-17-24 12-83-10-72-24-1 15-25-2-15 12-9-11 64-60 49-76 19-67 38-89-4-36 33-76 28-14 9-22 5-31 18-8 21 5 78-53 27-25 29-50 30-59 20-15 35-70 19 1 57-39 36-36 20 1 72-44 77-19 38-38 37-20 102-23 75-59 128-64 67-23 15-14 37-12 35-2 24-25 28 1 45-21 26-31 66-35 20 21 1 2-1 1 40-24-5-5-26 8-15-11 20-22 18 14 38-21 21 10 121 63 51-22 56-39 44 25 26 26 25-22 25 18-13 30 28-4 16-21 21 10 11 20 41-41 30-42h12l63-49 56-43-9-13-52 37-18-7-19 14-25-2-2 25-8 12-11-8-1-33 10-20 12-46 19-26 36-26-2-24 14-30 18-25-1-19-6-5-26 25-24 49-34 27-30 24-25 1-36 4-12 10-10 38-4-26 11-40 9-36-2-81-10-11-60 46-34 18-29 18-34 35 8 24 22-12 2 9-34 21-23-5 7-61-10-10-40 29-13-6-14 20-63 45-45 71-26-6 14-40 164-128 33 5 45-42 21 22 92-52 24-23 22-15 4 13-10 13-3 88 28-21 5-27 32-37v-11l21-15 33-2 10 15-40 17-48 34 2 12-1 23-42 41 44 1-20 23 9 3 59-34 14-44 99-127 57-59 6 9 38-27 3-22 8 1-1 18 43-1 55-31 84-70 60-72 42-26 22 4 4-13 66-60 30-6 77-60 52-144 40-87zm-474 602-3 21 25 1 10-16 14 4-5 21 32 17 50-113-19 5-15-14 121-58 15-25-62 21-16 25-7-4 6-15-10 2-4 15-26-11-43 22-32 33 14 7-31 28-27 34zm-204 128 66-34 35-89-23-4-108 94zm295-264 35-8 61-60-3-25-52 21-42 58zm156-40 35-39 12-35-14-11-42 36-11 22zm73-110-10 26 21 10 43-57 10-40-8-2-38 57-7-6 21-30-22 1-33 36zm32-42 17-19-11-7-31 28z"
			/>
			<path
				id="Reindeer"
				d="m-4386 2266 109-185 43-15 27 63 72-46 7-67 43-49-34-68 22-38 24 24 30-25-29-46 75-3-70 179 54 27 18 67 76-79 22 20-92 101 61 29 35-52 81-16 37 55-91 132-86 137-85 31-9 45-102-2-8 119-43 26 58 46 53-6-2 67 29-36 37 32-1 38-19-8-7 21-27-1 4-33-52 49-33 15v34l-18 20 7 58 24 22-10 19-28-19-20-51-48 28-6 131-61 34 8 48 26-38 65-42 13 10-38 31 19 19-27 52-32 11-54-34-64 93 42 9-5 27 30-26 12 9-25 47-47-21-43 35-34 55-15-13 4 37 46 12-9 19-43 10-28-28-27 19 3 49-54-15-38 13-17 28-52-12-30 41-48 4 26 46-14 48-39 22-40-13v-1-3l-20-96-102 111-16 6-10-32 107-173 56-197 30 12-39 100-33 150 114-45-4-35 24-10 11-68 23 45 60-36 32-65 43 5-18-37 51-27-15-29 20-19 27 45 20 2-9-126 49-27-28-38 14-21-1-56-26-2 24-61-12-13-23 9 9-27-13-26-55 36-5-25 52-40v-20l-60 1 73-63 5-41-54-10-10-31 26-31 28 10 3-46-43 6v-49l-87 39-8-44 30-29-17-41 139-59 39-83 13-57zm-159 257 97-54-25-42-84 31zm371-276 72-41-8-46-26 4 7-68-31 23zm-220 312 25-51 18 1 23-42-54-4-40 77z"
			/>
			<path
				id="Robert-bourassa"
				d="m11276 5444-24-58 40-8 36-19-5-23-25 19-31 5 27-34-53 3-19 20 34 20-40 3-87-48 155-175 54 14 116-27-6-30 104-47 127-159 27-75 31-38-73 14-131-26 37-53 76 34 79 3 33-56 61 3 2-84-70-31 61-59 141 16 40 35-81 26 24 25 22-4-9 22-32-5-44 27-3 37 52-26 18 8-14 43 74 10 5 17-72-3-32 36 31 2v23l-73 1-57 85 48 4 5 71-105 37-63 135 85-3 159-90 157-46 34-45 68 11-19 12-22-1-100 70-73 1-32 53-95 58 61-1 45 27 104-88 53 3 2 27-301 195-10-8-129 84-230 16 11 40-58 3 4-28-61-6zm459-556-30 49 14 6 50-61 23 5 79-144-10-6-44 55-5 31-58 4zm-159 463 18-24-8-9-29 22-1 1-23-10-14 27 14 14-40 11-9 18 66 5 120-13 86-84-27-12-50 30 3 20-21 26-1-42 36-40-37 1-80 69zm-151 47 11-45 33-19-40-6-88 58z"
			/>
			<path
				id="Smallwood"
				d="m18742 1364 105-25 75 47 67 108 37 14 21-35 207 103 80-53-10-61 41-48-53-6 8-33-46 4-5 31-35 8-14-33 57-36 127-235 31 4-17 79 59 60 51 22 44-21-13 90 10 33 38-13 13 26 44-7 24 66 38-14 27 28-26 58-79 43-21-39-189 115 56 17 137-33 5 19-174 50-19 54-57 14 16 41 41-16 7 28-43 17 10 35-113-1-82 76-130-171-195 55-49 51 94 31-58 57 45 26-154 102-146 138 82 6 8 43-125-17-59 45-91-28-28-73-50-50 9-45-52-58 94-85-38-46 39-10 121 49 105-31-77-42 20-17 69-52 84 12-1-22 57 2 4-23-165-51 12-107 55-45 24-7 70 119 21-27-38-55 37-7-50-95 45 1-80-76-34-210-44-18-2-24 90 8 7 37-25 13 29 45-19 14zm135 328 61-15 17 15 81-39-6-36-107-24-52 12zm167 85 50-24-31-58-83 36zm367-270 26-13 17-32 6-27-52 14-43 40zm88-16 56-60-40-6-51 46zm-94 101 45-25 3-33-83 20-23 32zm69-252 59-47-80-16-24 80zm-124 44 64-45 4-58-81 71zm-551 508 49-26 11-26-23-18-72 42z"
			/>
			<path
				id="St_clair"
				d="m10177 18583-5-12 16-4 28-46 5-58-16-37-5-48 26-66 46-8-20-38-27-13 12-42 31-11-1-10 40-35 24-3 22 11 22-3 7 25-15 25 2 2 11-4 15 6 14-5 39 3 10 9 5-5h12 3l-39 60v23l20 24-9 18h53l26-30 8 4-13 19 33 13 30-15 23 87v84l-22 36-30 11-51-2-39 27-98 26-167-19-23 2z"
			/>
			<path
				id="St-louis"
				d="m17056 12061 25 6-6 41 21 25-103 130-67 18-50 100-82 53-7 120 15 58-6 39-18 34-45 97-27 79 23 130-24 89 61 100-12 38-42 6-44 24-36-6-57 42-33 101-34 22-34 105-27 28-35 19-69 13 1 27-39 44-40 15-71 81-30 114-43 19-80 68-17 20-25-1-9 11-29 12 2-16-4-10 41-23 23-25 31-13 51-51 26-101 169-199 6-51 88-34 53-52-35-19-44-54-41-13-147-17-71 12 44-47 61-17 19 30 72 21 70-47 20-54 38-32-9-26 30-38-1-26 21-23v-31l22-52 18-8 10-17 27-5 37-13 32-25 18-6 20-22 18-3 41-149 21-22 25-94 16-95-9-61-2-86 17-36 65-56 44-86 34-68 31-6 51-58zm-438 848-29 24-39 13-26 4-9 18-19 8-20 49-1 32-20 24 1 24-31 40 11 24-4 14 100-19 49-76 6-86 49-97zm55-21-23 9-61 105-6 87-50 76-64 13-4 14 7 15-29 53-19-15v31l-20 24 33 28 98-86 143-14 36-93-18-20-6-36 9-59-10-25v-36l-13-42z"
			/>
			<path
				id="Superior"
				d="m8139 14203 10 1 1 16-13 17-16-11-51 43-61-76-139 69-163-10-26-45 25-28-27-77-8-102 39-81-211 52-198 124-268 21-165 65-55-14-231 174-119 165-64-59-46 5-10 46-48 6-104-96-87 51-180 18-230-295-243-107h-144l-94 43-45 78-4-2 26-74 56-53 7-33-78 48-72 83-70 129-28-7 17-213 45-67 66-164 143-187 83-55-13-59 179-32-5-44-61-27-86 2-98 10-135 45-148 106-104 152-59 30-164 157-19 74-44 50-104 9-55 79-85 67-82 49-60 2-83 32-38-12-46 9-80 37-138 158-90 34-114 58-17-4-78 58-57-31-25 16-147-83-140 99-29-17 24-67 40-43-25-67 55-77 37-81-65-67-34-5-34 32-36-9-58 69-95 49-25-22-127 89-152 51-174 83-47-1-77 18-62-50-44-62 210-168 108-100 71-92 77-51 141-170 80-122 188-195 158-125 97-70 332-135 193-109 99-77-10-14 23-11 14 14-9-28 23-22 4 18 37-12-7-11-5-12 89-44-22-9 121-103-8-17 19-26 8-25 8-81 33-50-13-57-13-73 40-54 142-59 130-85 18 19-51 114 9 7-20 54 6 7-13 30 8 7-4 7-20-5-24 71 3 3 14-19 15-1 109-51 25-87 34-92 1-125 57-23-12-55 27-21-35-41 4-44 34-42v-33l31-6 25 12 32 5 37 24-12 22 30 25-16 97-49 50-83 114-19 48 11 56 16 38 17-56 18-8-9-21 9-38 8 6 26-65 9 9-3 15 26 13 62-56-11-11-13-1-13-59 9-5 40 57 23-33-6 42 18 5 54-79 32-78-14-38 9-37-13-24-16-1-75-34-18-33 6-63-29-20-7-33 8-8 12 22 32-10 17 9 47-49 27 13 11-30 18-3 18 43 72 38 16-15 46 30 25-19 15 4 9 24 22-15 49 6 23 42 34-11 1-1 7-13 36 2v46l99-20 18 29 73 6-4 29 64 6 24-12v-23l13-4 14 21 108-24-12-33 20-1 34 32 32-1 30 27 106-78 68 15-13 53 70-1 27-43 48-19 42 41-9 12 47 78 28-10-16 46 29 10 21 25 149 351 60 85 86 96 83 71 100 44 131 3 155-26 49-43 336-55 22 40-68 125 47 27-70 103 25 19 4 18-34 82 77 37-6 20 137 54 82 76 2 25 25 14 16-8 63 77-76 127 18 17-29 32 28 40-46 73 4 65 65 32h-1l9-22 38 7 7 39 34 31 19-67 25-1 24 23 19-25 26 3 72 28 16 26-33 68-35-31-80 45 24 19-17 69 18 60 27-16 6-59 21-20 31 16-5 36 23 30-41 30-65 110 5 39 52 33 16 33zm-2998-2097 3-50 68-38 75 7-6-45 31 16-1-70-91-12-75 4-75 66 30 118zm1659 885 169-10 82-43 13-32-77-10-35-19-83 15-74 69zm-2450 95-15 36 54 30 187-101-3-5-72 22-3-20 135-97 57-17 41-25 69-66-11-33 109-114-3-5-79 46-160 97-11 24-55 28-233 146-31 54zm970-1135 27 39-21 21 44 16 65-22-83-95-33 11zm-979 768 42 5 51-42-22-37-71 29zm-1007 1533 15 14 50-23 21 10 25-48-17-15-79 35zm140-89 46-44 3-55-38 10zm-225 287 45-43 52-11-15-30 77-37-38-33-87 93-40 20zm3168-40 16 10 3 44 40-2 22-25-36-11 10-54-22-25-47 21z"
			/>
			<path
				id="Winnipeg"
				d="m-2807 7325 61-212 53-31 99-287 4-30-25-66 32-16 20-28-12-38 29-26 72-6 65 12 6 47 208-12 106 48 110 93 16 52 83 6 48-17 7 62-22 29 101 160-12 72 68 90-16 28 10 38 99 118-26 21 32 126 58 36-1 12-45-9-20 52-25-13 63 227 76 73 6 73 70 169-7 50 44 11 3 34-21 15 22 12 1 20h-17l-25 22 27 6 31 55-19 34-49 1 31 92 52 64-3 49 57 47 44 91-48 78 75-3 40 52-15 56-51 10 42 54v15l135 184-40 42 90 164 49 20 90 151-69 7-28 35 35 40-58 22-3 2-4 26 28 42 27 303-25 55 20 57 61 63-7 12-35-35-43 3-97-79 3-34-13-10-20 23 15 26-42 26 13 82-39 33 42 123-57 50-81 10-11 93-44-7-40 7-26-138-28-162 29-29-25-22 5-182 29-43-12-33-18-21-3-34 26-34 21-53-23-72 35-46 38 5 18-91 50-66 74-35-13-9 58-82-72 7-21 16-5-14-2-1 20-24-5-15-35 41 10 11-98 125-50 27-22-40h-2l67-106-22-23 138-211 20-79-66 10 29-82-40-9 6-69-21-8-99 86-72-8-23 144 11 13-5 30-64 63-40 7-11-22 1-39 11-43-19-56 4-76 22-18 35-190-74-239-57 3-39 30-30 52-8 60-31-1 9-66-26-7 25-43 16 4 49-121-54-22-39 44-1 1-39-3-8-60-44 32-16 40 42 26-44 101-29 101-54-5-22-26 8-17-68-19-13-22 3-128-60-67 8-102-55-91-93-28-35-39-25-62 13-82-105-98-2-38-99-91-30-66 11-59-34-39-30-57 6-37 34-22 41-2 34-20 67-1 93-24 53-30 18-17-50-27-51 8-54-16-49 4-50-19-11 36-31 5-27-27-100 3-22-82zm804 758-1 13-28 16 6 31-11 19 18 27-28 10-7-20-10 1 56 166 19 5 30-64-14-21 7-11-20-33 10-31-18-118zm805 1556-33 91-60 9-2 48 47 29 61-47 29-104 39-60-8-5 8-10-5-4-37 25-7-14h-20zm97 5 100-24 55-41 16-50-39-2-101 47-36 49zm11-122 68-49-15-20-39 13-34 47v1zm-506-1125 51 1 31-94-17-15-60 58z"
			/>
			<path
				id="Winnipegosis"
				d="m-3966 7661 33-46-19-19-23 5-26-28 41-49 3-51 34-59-80-14-30-50 26-64 61-12 51 28-29 25 59 37 66-17 38 19 94-52-4-47 56 13 27 20 25 62 225 86 18 49 68 40 73 6 40 16-20 30 69 32-70 105 37 23-27 53 33 52-2 192-91 220-74 43 23 111-20 90 14 48 37-9-10 156-43 19-17 130 11 48 54 9 37-147 26 2-17 125 3 74 21 71-72-15-57 50 1-31-99-93 16-140 18 20 19-77-25-53 3-83-11-84-35 13-16 41 15 34 10 144-9 141-36 5-44-205 2-430 42-120 71-42 17-212-32 30-10-71 37-94-7-55-65 1-32-23 22-36-48-59-35 38 29 226-11 22-46-14-22-24 17-50-56-29-8-55 32-55-38-27 18-77 28 2-12-48-66 24-31-37 27-20-8-16-39 23-21-25-67 35 45 42 36 53-20 43-45 9 21 34-19 63-98 10-30-41-32-22zm618 496 24 48-7 41 14 15 24-5 57-248-54 27-18-14z"
			/>
		</g>
	</g>
	<!-- ~~~~~~~~~~~~~~~~~ -->
	<g id="ON" fill="#000">
		<path
			mask="url(#all)"
			d="m3578 3252 44-5 13-14 20 4 9 13 16 1 8 21-15 12 17 22 70 31 20 27 5 24 35 25 40 16h24l47 48 67 47 93 37 60 12 74 24 22 35 7 28 33 37 62 49 23 60 33 36 13 36 14 25 48 72 43 25-5 9-6 6-7 5-15 19-2 7 4 11 8 7 5 8-5 12-18 18-15 6 1 8 20-9 14-6 12-14 4-15 15-8 21-3 35-7 37 19 47 20 76 24 196 7 119 48 220 70 66 44 242 31 77 51 53 5 78 54 90 86 82 50 77-3 73 43 15 45-19 19 19 9 38-24 25-4 159 13 130-19 39-6 29-31 52-13 23-16 22 7 44-22 71 17 1 1 79-60 41-9 124 52 17-15-21-16-1-13 15-6 35 16 54-3 57 28 180-15 100-54 48 6 30 51 39 26 67-21 1-26 28-13 79 29 44-11 81 50 42 11-30-48 14-6 14-17 20 3 14 53-15 21 31 106 6 46 38 17 18 37 10 48-25 160 10 167-20 277 63 124 121 113 115 198-18 273 99 211 41 104-61 90-8 129 30 123-7 18h11l22 30 68 14 151 108 55 92 77 42 155 140 36 22 21 6 8 12-1 20-4 14 9 46 25 20 11 12-9 19-3 7-20 10-34 14-7 28-38 18 5 11 31 17 33 1 13-15 31-5 33-8 48 20 56 85 132 31 59 10 19-20 80 32 39 41 33 48 125 50 77 49 71 72 7 47 92 138 50 48 26 84 19 20-15 7-9 10-17 27 2 23-41 27-29 32 44 11 22-30 40-31 33-48 22-6 85 26 61-1 17-6 35 13 34 10 21-2 63 48 40 20 66 1 12 13 30 19 20-4-35-50-17-10 24-104-41-46-8-55 12-16 23 24-16-38 32-23 27-46 4-31h23l14-9 1045 4210-23 144 163 171 37 170 96 87 55 80 97 82 29 1 93 128 76 53 54 93 117 80 119 42 14 47 37 16 235-29 65 25 40-37 87-23 80 14 37-17 122 15 121-3 4-22 91 19 272 95 18 71 87 72 183 41 49-38-39-84 26-21 65-4 52 30 5 78 32 53 48-7 23 35-16 33 117 117 114-12 100 38 93-48-10-45 95-39 108 19 128 82 39-15 89-132 218-162 59-70 92-21 69-44 37-71 166-29 52-34 91 18 61-10-1 3 77 1 26 304 156 84-71 93-17 81-3-1-20 28-23 18-22 9-37 38-8 18-61 31-67-3-55 49-125 131-79 90-39 38 4 20-116 185-112 219-22 40-16 57 2 47-71 119-11 11-29 2-32 34-75 76 17 45-17 42-82 44-69 140-132 588-1499 413-368 312 159 180 10 4 45 127-13 25 12 11-6 38 66 3-7 55 12 30 97 28 19 42 1 3-2 23-2 63-819 718-918 428-841 799-238 48-370-148-105-187 3-57 2-43-29-126 14-61 18-35 93-51 4-5 92-48 92-193 30-49 31 8 32-55 17-25 10-186-21-43-2-146 21-42-11-43 3-9 105-697-705-1878-942-375 91-218-128-101-67-6-77 36-55-9-47 75-41 11-24-48-26-13-6-35-63-32-11-24-23-31 6-18-16-11-12-51 9-10-4-5-55-90 25-115-84-20-44 67-83-9-59 63-4 12-64 1-189-164-120-272-2838-1221-221 89-464 350-117-36-55 18-3 5-36-11-56 9-34-13-58 12-47 38-46-27-43-12-7-37-23-28-87-23-119 20-46 13-70-6-76 17-7-32-139 45-28-49 5-28-42-23-7-69-93 33-37 32-67 35-91 93-114 45-56-9-76 24-1-54-92-10-27-89-186-41-70-137-47 16-128 12-12 29 34 76-76 37-86-163 13-49-43-37-146 3v-54l53-4-1-47-79 5-169-91-171-8-196 59v44l-133 37-128 6 13-60-28-68-306-21-17-49-107-13-23 20-100-28-78-64-9-54 17-55-52-247-23-47-31-164 1-38-97-54-73 19-71-36 9-3817 974-991z"
		/>
		<use xlink:href="#i-CA-ON" />
	</g>
</svg>
