<svg xmlns="http://www.w3.org/2000/svg" xmlns:xlink="http://www.w3.org/1999/xlink"
    viewBox="22714 8375 1797 866" width="80" height="39">
    <defs id="defs1">
        <mask id="all">
            <g>
                <path fill="#fff" stroke="none" d="m-24500-27050h55700v47100h-55700z" />
                <use id="LAKES" fill="#000" xlink:href="#Lakes" />
                <g fill="none" stroke="#000" stroke-width="40">
                    <path
                        d="m17072 12065 28-30 64-131 127-130-1-96 54-71 63-32 25-62 28-33 19-59 73 5 56-12 285-249 16-46v-43" />
                </g>
                <g fill="none" stroke="#000" stroke-width="96">
                    <path
                        d="m-13214-2631-2585 6234 21 34 36 19-38 54 64 42 16 107-32 22-80-70h-21l41 308 182 90 15 202 121 119 40-106 47 14 81 170-39 63 29 203 110 82-44 74 43 144-68 23 46 196-56 91 4 12 116 5 74-85 126 216-122 52 37 114 47 4 41 98 43-16 127 23-23 112 111 256-23 31 17 31 7 157 63 18 88-92 49 40 2 151 42 87-12 41 41 37 1 17-16 17 9 50 43 28-47 138 145 187-45 81 149 114 77 229-69 6 112 241 56-13 1 94-28 6 34 64-5 65 53-31 95 16 29 161 57 134-29 112 8 75-25 74 18 72-22 104-18-8-29 74 11 83-8 47-20 14 2 44-40 24-12 68-62-3 4 73 91 32-49 93-15 79 52 71 17 161 111 67 40 55-16 67 44 62-21 43 2 5" />
                    <path d="m-8064-955-1627 6771-240 997-947 3941" />
                    <path
                        d="m-3793-208-459 4145h2l-41 378 24 3-41 378 24 3-41 378 24 3-41 379 23 3-41 379 24 2-41 380 25 3-40 380 23 3-41 381 23 2-40 381 19 2-40 382 22 2-40 382 19 2-40 382 22 2-36 344 5 1-40 387 21 2-40 388 21 2-40 390 23 2-40 389 21 3-21 201-19 189 21 2-39 390 18 2-40 393 22 2-19 197" />
                    <path d="m3578 3252L872 6807l-974 991-9 3817-1 429" />
                    <path
                        d="m10559 8018 1045 4210-23 144 163 171 37 170 96 87 55 80 97 82 29 1 93 128 76 53 54 93 117 80 119 42 14 47 37 16 235-29 65 25 40-37 87-23 80 14 37-17 122 15 121-3 4-22 91 19 272 95 18 71 87 72 183 41 49-38-39-84 26-21 65-4 52 30 5 78 32 53 48-7 23 35-16 33 117 117 114-12 100 38 93-48-10-45 95-39 108 19 128 82 39-15 89-132 218-162 59-70 92-21 69-44 37-71 166-29 52-34 91 18 61-10-1 3 77 1 26 304 156 84-71 93-17 81-3-1-20 28-23 18-22 9-37 38-8 18" />
                    <path
                        d="m15755-4173-90 42-53 69 7 32 92 19 70-15 32 46-72 45 43 57-106 27 89 74 125-23-4 72-40 5-2 80 86 95-36 77 23 108 109 6 79 43 31-41 42-111 66-2-50 132 92 189 81 118 75-26 81 53-78 78-158-30-69 38 55 161 70-73 109 19 31-44 138-34 36 96 65 10 15-86 93-139 137-14 83 55-94 107-157 98 7 112 84 58 29-82 42 2 56 46-5 78-59 16 18 81-73 36 29 152-66 93 54 114 116-21 216 218 5-51 69-26 53 78 125-10-20-65 28-31 42 72-46 133 76 118 68 64-63 73 30 86 75-28 47 179-46 9 122 203-65 48 38 80-30 110 198 105 66 73-29 65-116 33 144 136 61-58 75 39-78 108 73 71 57-98 51 53 54-42 49 18 112-63-5 48-153 186 157 92 31 126 47-18 60 147-33 49 87 27 195-92 25 30-123 99 30 34-58 67 52 15 116-66-44 149 122 245-163 20 85 124-37 60 188 83-179 131-142-70-193 13-10 88-130 48-33-89-160-35-102 12-26 176-144 42 75 52 23 55-127 23-4 51-157-87-43-74-122 55-73-27-50 32-353-197-9 39-121-69-7 58 109 44 8 116 127 89-39 36 154 146 12 109-199-23-285-120 7-37-73-13-66 68 218 159 185 98-68 154 47 104-179-36 39 96-115 118 170 233-67 83 48 121 272 102-43 60 20 32 54-19 230 151 149-49 135 84-37 98 52 34 82 232-206-33-57 82 172 223 107 6 28-66 88 99 118 38 84-145-51-189 69-172 186 147-79 37 206 222-123-22 187 286-72 46 74 101 109 64 45-44-88-149 191 87 24 79 96-4 38-84 120-36 62 69 36-136a43104 43104 0 0 0 6 0l8 1 23 48 126 48 60 143 37-71 121 70 151-37-3-52 100-37 37-13 175 128 37-131 47-31 5-79-101-82-66-132 59-40 4 4-66-89 11-106-89-98 2-161-129-141-43-165 208-170 14-141 71 105 173 33-230 176-77 94-8 122 93 84 166-14 209 202-112 42 62 67a43223 43223 0 0 0 3895-2352l121 177 133 196h-1l108 160" />
                    <path
                        d="m19218 9964 154-127 124-149 72-186-165-371 179-80-38-86 357-162-3 17 35 57 40-8 26-3 106 8 22 16 3-58 39-21 57-8 34-56 46-49 84 19-30-57 9-47 38-47 51-12 4-11" />
                    <path d="m23343 9612 4 17-73 35-4 8 4 16-6 60-13 54 4 46" />
                    <path
                        d="m-15092-14714-775 1016v11l-33 36-1 14 52 67-130 203-42 119-122 63-92 171a26929 26929 0 0 0 801 583l-103-46-29 68 42 50-44 160-111-13 53 227-63 6-1 2-184 156 67 69-47 135-118 34 29 71-66 50 50 74 209-8 26 76-80 52 28 50 124-58 70 13-20 65 78 22-22 41-145 22 37 154-33 174-179 118 2-2-93 15-70 63-112-10-30 86 94 9-62 100 67 43-17 50-108 10-42 87-87 16-3 71 76 24 32 134 41 42-30 182 66 60-152 89 124 71 93-20 74 95-27 292-69 14-6 115 49 27-57 35 70 126 23 134 104 9-55 105-120-7 3 70 74-3 11 300-61-21-55 105-80-37-65 33 64 125-23 125 74 91-168 128-38 333 75 189-108 38 23 48-95 71 15 80-70 45 172 178 129 2 29 274-17 102 64 15 6 65-67 43 115 381 110 45 45 84-88 299-84 14-33 110 72 23-103 281 98 42 67-2 63 67 54 37 45-77 56 30 32 76 117-61 17 131 35 28 47-10 34 78 80 37 55-26 178 56 65-96 120 71-62 192-93 36 1 285 84 60-56 82-22 329 1 10 53 113" />
                    <path
                        d="m-3208-21147-2324 9668a23675 23675 0 0 1-900-235l-26 92-3 27 38-1 5 26-46 12-42-9-21-20-9 31-84-24 50-173a23675 23675 0 0 1-1498-488l-51 110 86 328-69-30-1389-451-663 1553 2397 3710a28552 28552 0 0 0 795 212l421 843 1906 706 1349 501-503 4551" />
                    <path clip-path="url(#nu_nl-clip)" d="m15741-4139 5-203" />
                    <path
                        d="m-22032-7952a34499 34499 0 0 0 5051 3483 34499 34499 0 0 0 1885 991 34499 34499 0 0 0 1882 847A34499 34499 0 0 0-8064-955a34500 34500 0 0 0 4271 747 34500 34500 0 0 0 4 0A34500 34500 0 0 0 94 1" />
                </g>
            </g>
        </mask>
        <clipPath id="nu_nl-clip">
            <use xlink:href="#killiniq" />
        </clipPath>
        <clipPath id="nt_nu-clip">
            <use xlink:href="#victoria" />
            <use xlink:href="#melville" />
            <use xlink:href="#mackenzie_king" />
            <use xlink:href="#borden" />
        </clipPath>
    </defs>
    <g id="Lakes_and_Rivers" display="none">
        <g id="Islands">
            <g id="i-CA">
                <g id="i-CA-PE">
                    <path id="cascumpec"
                        d="m22920 8807 10 4 7 9 34 25-3 4-8-7-2-4-11-4-3-6-8-1-8-13-11-3z" />
                    <path id="conway"
                        d="m22972 8847 62 21 74 22-2 3-8-5-8 1-27-10-18-5-14 1-4-7-12-3-2 3-10-8-33-9z" />
                    <path id="hog"
                        d="m23129 8903-10-11 42 7 58 4 36 6v3l-13 3-29-7-15 21-6-20-53-12z" />
                    <path id="prince_edward"
                        d="m24511 8379-12 36-35 80-16 29-14 9-8 14 3 6-5 11-13 2-3 11-19 14-55-15 16 9 7 12 10 4-1 14-8 5-26-7-33 17 25-1 4 33 19 1-26 17-24 5 28 5 20 10-9 9 5 18 5 6-10-5-23 3v11l-47 4-9 17 16-10 31 6 14-5 28 27-12 12-28 18h-17l-9 13-15-3-9 4-8-4-13 8-10 2-3 5-12-2-15 6 20 3 20-9 25-3 34 11 12 8v6l-11 6-10-4-7 7-34-7-15 7-4-3-11 4-9 17 12-13h16l12-5 16 5-34 26-3 9-4 6-7 4 9-1 10-18 24-13 6 2 11-11 23 5v14l-7 3 2 8 11-4 4 2 1 4-10 13 10 5 4-8 14-3 3 6 15-4-6-8 18-12-7-13-27 15-2-16 11-9 14-3 13 22 22 12 11 26-4 9 6 25-2 11-13 1-14 17h-8l-4-9-3 8 8 12-11 11-7-2 2 12-24 27 1 3v-1l7-7 6-3 17-21 16-11 2 6 8-4v6l8-7 4-1v9l20-20-1-3 19-6 5 15-15 41-31 32-39 23-36 29-24 14-15 2-12 13 6 8-5 3-4-9-58 25-21-1-42-9-1-11-57-14 2-15 14-7-6-7-9 9-66 49-8 1 10-19-4-6 9-7 6 1 28-37 1-13 14-6-1-14 13-16-13-19 5-9-2-9-7 9-5-8 8-14 15-3 3-8-8 6-11-3-6 10-2 12-4-9 2-5-2-11-5-2 3 12h-8l-7-7-3 4 16 11 8 26-14 19-14 12-10 2-15-25 2-24-5-7 13-6-16-8-12 1-8 10-4-14-8 13 11 18-27 14-9-15-17 14-23 3-13 10-14 4-13-11 5-45 7-9 17-5-3-7-6 4-6-3-1-12 13-4-4-14-5-2 4-8h5l5-3-7-5 6-15 8 3-2-18 14-7 7-19-3-2-15 18-13 11-8 17-12 13-6 32-7 5 7 9-6 13h-7l5 16-1 15-12 10-10-4-13-18v10l-15-1-3-6-17-6 21 20 7-1 14 5 7 10 3 12-17 3 1 8h-10l-4 4 10 7-5 3-3 6 5 3-14 10 14 12 13-26h6l1-13 18-19 20 11v14l-6 18-33 43v16l8 2-21 15h-41l-12 6-50 2-17 8-29-5 1-8-4-6-5 12-9 9-38-13 11-3-17-10 4 12-1 12-20 13-12-8-11-1 8 9-1 5-8 3-12-6-7 5v9l-13 3-10-5-4 8-17-4-8 10-7-12-24-5 1 8-19-3-5 4-7-21 1-4-10-3-7 6-41-15-15 4-13-6-14 13-17-22 7-8 10 1 10-8-40-17 2-6 27 8 12-5 15 3 5-10 5 1 15-14-12 7-16-3-5 5-7-5-12 2-4-12 4-6 4 1 2-13-17 13-16 7-11-2-17 18-28-2-7 17-21-9-23-1-11 21h13l-24 29-13 11-22 7-16-1-61 25-19-25 5-21 13 5-4-16-9-9v-16l-34-46 9-78-6-17 1 18-17 6 1-15-12-10-8-16 6-11-6-12-9-2 9 12-6 5v38l-5 21-23 2-37-7-5-8-13 5h-8l-12 12-16 9-28 8-3 9-20 17-28 17-41-32-22-47-2-23 7-19-4-6 29-88 6-42-10-78 9-43-2-7 7-25 17-27 14-33 17-31 9-77 14 12 52 106 26 23 17 28-6 12-4 26 1 33 11 26-6 2-9-31-11 2-2 4 13 7-1 38 9 5-1 6-4 1-8-7-3-12-6 4 5 4 5 11-5 6-9-1 8 8 10-6 6 4-17 3-4 8-6-7-2 8 10 4 3-7 14 2 12 18 2 14 3-2 6 11 7-2 3 6-13 20 2 9 13-7 2-13 29-9-21-3-9-10-10 4-5-4-5-10 5-4-1-5-5-2 5-3 29 10 3-17h30l5 8 20 10 42 9 24 17h17l11 8 19 31-19 6-13-9-3 3 16 9 13 12-3-13h12l6 5 7-6 29 3-1 8-10 6 8 15-5 14 10 9 3 15-9 27-18 14 2 18-4 13 4 6 3-11 6 1-2-14 8-15 11-5-2-9 5-4 5 2 17-11 2-17 34 19 6 20-4 6-8-2-5 5 4 7-7 3-2 6 16-7 11-3h12l9 6 20-19 6 1 5 9 3-9 11 1 9-5 3-9-10-3 2-11 9-2 6-6h-7l-12-12-21 6 3-11-12 1-1 5-8 3-5-10 9-24 11-12 9 5-11-17-27 7-1-22 3-16 17-3 1 2-9 5 8 3 4-3 8 1 6 6-5 10 10-9 7-12-12-11-13 1-2 6h-3l7-16 38-9 68-10 23-8 26 12-3 19 7 10v17l9-4-4-2 1-8-2-13 5-2 8 14 4-3 15 8 2 6 4-10-6-6 1-4 11 3-10-12 9-10-1-12-38 11-9-1 72-22 6-6 36-11 13-1 33 24-15 8 8 3 2 23 9-1-5-17 7-7 14 4 14 12 17-9 4 3-1 21 21-22-9-17-11 4-11-2-7 8-19-8 45-5 53-29 75-18 20 8 8-4h9l4 8-21 16 8 7 2-7 14-10 20 13h9l-18-34 1-14-8-11-41 27-4-3 25-15 57-51 32-22 14-5 4 18-6 10 1 8 25-24-23-13 57-45 24 4 6-5 20-1 6-10 20 5 1-10 11-6 5 5 8-7 17-3 6-5-30-4-29 15-8-2-15 1-8 9-12 6-13 4-1-5 17-21 38-35 56-34 48-35 65-27 110-83 39-22 60-16 58-25z" />
                </g>
            </g>
        </g>
    </g>
    <g id="PE" fill="#000">
        <use xlink:href="#i-CA-PE" />
    </g>
</svg>