<?xml version="1.0" standalone="no"?>
<!DOCTYPE svg PUBLIC "-//W3C//DTD SVG 20010904//EN"
 "http://www.w3.org/TR/2001/REC-SVG-20010904/DTD/svg10.dtd">
<svg version="1.0" xmlns="http://www.w3.org/2000/svg"
 width="512.000000pt" height="512.000000pt" viewBox="0 0 512.000000 512.000000"
 preserveAspectRatio="xMidYMid meet">
<metadata>
Created by potrace 1.14, written by Peter Selinger 2001-2017
</metadata>
<g transform="translate(0.000000,512.000000) scale(0.100000,-0.100000)"
fill="#000000" stroke="none">
<path d="M1870 4678 c-201 -16 -461 -89 -604 -169 -10 -6 -35 -20 -55 -31 -20
-11 -44 -27 -53 -36 -10 -8 -18 -12 -18 -8 0 6 -26 -11 -90 -61 -143 -110
-302 -270 -370 -373 -8 -12 -22 -29 -30 -38 -8 -9 -15 -18 -15 -21 -1 -9 -39
-65 -50 -73 -5 -4 -6 -8 -2 -8 5 0 0 -12 -10 -27 -34 -51 -127 -273 -137 -326
-3 -12 -5 -23 -7 -24 -1 -2 -3 -12 -4 -23 -1 -11 -4 -22 -5 -25 -1 -3 -3 -8
-4 -12 -1 -5 -4 -12 -7 -18 -3 -5 -5 -25 -5 -42 1 -18 -2 -33 -6 -33 -4 0 -5
-9 -3 -20 2 -11 1 -22 -3 -24 -4 -2 -7 -27 -7 -55 0 -28 -4 -51 -9 -51 -4 0
-3 -6 3 -13 6 -8 7 -17 3 -21 -11 -11 -9 -190 3 -198 6 -5 5 -8 -3 -8 -7 0
-10 -5 -6 -11 6 -10 13 -78 17 -156 1 -13 4 -23 7 -23 3 0 7 -12 8 -27 4 -45
8 -62 15 -69 4 -4 7 -18 7 -31 0 -14 5 -33 11 -45 6 -11 13 -32 15 -46 3 -15
10 -32 16 -39 6 -7 7 -13 3 -13 -4 0 -2 -6 4 -13 6 -8 8 -17 4 -20 -3 -4 -1
-7 5 -7 6 0 9 -7 6 -15 -4 -8 -1 -15 5 -15 6 0 11 -8 11 -19 0 -10 7 -24 15
-31 9 -7 13 -15 11 -17 -3 -3 4 -20 14 -38 32 -56 45 -79 53 -89 19 -27 57
-87 57 -91 0 -3 8 -13 18 -23 16 -17 42 -50 89 -111 10 -13 26 -31 37 -40 10
-9 24 -22 30 -29 6 -7 24 -25 40 -40 16 -15 40 -39 55 -53 94 -92 334 -242
471 -294 131 -50 292 -89 417 -102 86 -8 322 -8 388 1 28 3 68 9 90 11 54 8
187 42 260 67 124 43 317 145 389 205 l29 25 96 -97 c53 -53 90 -99 85 -103
-11 -8 -60 -86 -56 -89 1 -2 2 -4 1 -5 -6 -15 -3 -120 3 -124 5 -3 6 -10 2
-15 -16 -27 12 -56 720 -755 149 -147 220 -183 366 -189 122 -4 189 14 296 82
69 43 168 166 179 221 2 9 4 17 5 17 2 0 11 38 12 53 1 6 4 12 8 12 8 0 4 185
-5 199 -3 6 -9 24 -11 39 -6 31 -65 142 -76 142 -5 0 -8 4 -8 9 0 4 -174 184
-387 399 -272 274 -399 396 -426 407 -79 32 -201 19 -251 -27 -18 -17 -20 -16
-51 10 -18 15 -30 30 -28 35 2 4 0 7 -5 7 -17 0 -122 112 -115 124 10 17 47
70 53 76 9 8 72 114 75 125 12 43 19 54 29 48 6 -3 8 -3 4 1 -4 5 2 25 14 47
11 21 21 44 22 51 1 7 4 18 7 23 7 12 18 56 18 69 -1 5 4 12 9 15 6 3 13 22
16 41 8 41 14 65 16 65 1 0 3 11 5 25 2 14 7 39 10 55 4 17 8 46 10 65 2 19 4
35 6 35 1 0 2 11 3 25 1 14 5 31 9 38 5 6 4 12 -2 12 -6 0 -7 11 -2 28 12 48
4 277 -13 361 -3 13 -6 41 -8 62 -1 22 -5 39 -8 39 -3 0 -7 12 -8 28 -1 15 -6
38 -11 52 -5 14 -17 53 -26 88 -10 34 -22 62 -27 62 -5 0 -7 4 -4 9 3 4 -3 26
-13 47 -34 72 -64 139 -62 142 1 1 -8 12 -19 24 -11 12 -20 28 -20 35 0 7 -4
13 -10 13 -5 0 -10 6 -10 13 0 7 -9 23 -20 35 -11 12 -20 26 -20 31 0 5 -13
23 -30 39 -16 17 -30 35 -30 40 0 13 -226 240 -275 276 -22 17 -42 33 -45 36
-3 3 -44 31 -92 63 -281 185 -647 275 -1008 245z"/>
</g>
</svg>
